<?xml version="1.0" encoding="utf-8"?>
<!-- Generator: Adobe Illustrator 27.3.0, SVG Export Plug-In . SVG Version: 6.00 Build 0)  -->
<svg version="1.1" id="Layer_1" xmlns="http://www.w3.org/2000/svg" xmlns:xlink="http://www.w3.org/1999/xlink" x="0px" y="0px"
	 viewBox="0 0 50 50" style="enable-background:new 0 0 50 50;" xml:space="preserve">
<style type="text/css">
	.st0{fill:#BE1E2D;}
	.st1{fill:#FFFFFF;}
	.st2{fill:#EF3D33;}
</style>
<g>
	<g>
		<path class="st0" d="M30.8,31.6c-3.7,0-6.2-1.2-7.6-3.6c-0.7-1.3-1.1-3.1-1.1-5.3V9.8h5.6v12.9c0,1.5,0.2,2.3,0.4,2.7
			c0.2,0.3,0.6,1.3,2.7,1.3c2.1,0,2.5-0.9,2.6-1.3c0.2-0.4,0.4-1.1,0.4-2.7V9.8h5.6v12.9c0,2.2-0.4,4-1.1,5.3
			C37,30.4,34.5,31.6,30.8,31.6z"/>
		<path class="st1" d="M38.8,10.5v12.2c0,2.1-0.3,3.7-1,4.9c-1.2,2.2-3.5,3.2-7,3.2c-3.4,0-5.8-1.1-7-3.2c-0.7-1.2-1-2.8-1-4.9V10.5
			H27v12.2c0,1.4,0.2,2.4,0.5,3c0.5,1.1,1.6,1.7,3.3,1.7c1.7,0,2.8-0.6,3.3-1.7c0.3-0.6,0.5-1.6,0.5-3V10.5H38.8 M40.2,9.1h-1.4
			h-4.2h-1.4v1.4v12.2c0,1.5-0.2,2.1-0.3,2.3l0,0l0,0c-0.1,0.2-0.4,0.8-2,0.8c-1.6,0-1.9-0.6-2-0.8l0,0l0,0
			c-0.1-0.2-0.3-0.9-0.3-2.3V10.5V9.1H27h-4.2h-1.4v1.4v12.2c0,2.4,0.4,4.2,1.2,5.6c1.5,2.6,4.3,4,8.2,4c4,0,6.7-1.3,8.2-3.9
			c0.8-1.4,1.2-3.2,1.2-5.6V10.5V9.1L40.2,9.1z"/>
	</g>
	<g>
		<polygon class="st2" points="14.9,30.9 14.9,23 7.7,10 13.7,10 17.5,18 21.1,10 27,10 20,23 20,30.9 		"/>
		<path class="st1" d="M26.2,10.5l-6.6,12.4v7.4h-4.1v-7.4L8.5,10.5h4.9l4.1,8.6l3.9-8.6H26.2 M27.8,9.5h-1.7h-4.7h-0.6l-0.3,0.6
			l-3,6.7l-3.2-6.7L14,9.5h-0.6H8.5H6.8L7.6,11l6.7,12.1v7.2v1h1h4.1h1v-1v-7.2L27,11L27.8,9.5L27.8,9.5z"/>
	</g>
</g>
<g>
	<path d="M22.6,44.9l2.3-11.2c0.1-0.4,0.1-0.6,0-0.7c0-0.1-0.1-0.4-0.7-0.4c-0.6,0-1,0.2-1.3,0.7c-0.2,0.3-0.3,0.6-0.4,1l-1.4,6.5
		h-3.7l1.4-6.7c0.2-0.7,0.1-1,0.1-1.1c0-0.1-0.1-0.4-0.7-0.4c-0.6,0-1,0.2-1.3,0.5c-0.2,0.2-0.3,0.6-0.4,1.1l-1.3,6.6h-3.8l-0.1-0.4
		c0-0.1,0-0.2,0-0.3c-0.2,0.2-0.5,0.3-0.7,0.4c-0.7,0.4-1.5,0.6-2.3,0.6c-1.1,0-1.9-0.3-2.5-1c-0.6-0.7-0.8-1.6-0.6-2.7
		c0.3-1.4,1.1-2.5,2.3-3.1c0.4-0.2,1-0.4,1.6-0.5H6.3l0.2-0.6c0.3-1,0.7-1.8,1.4-2.4c1-1,2.4-1.5,4.3-1.5l0.1,0
		c2.6,0,3.8,0.7,4.3,1.4c0.3-0.3,0.6-0.5,0.8-0.7c0.7-0.5,1.5-0.7,2.4-0.7c0.9,0,1.6,0.2,2.1,0.6c0.2,0.2,0.4,0.4,0.5,0.7
		c0.4-0.3,0.8-0.6,1.2-0.8c0.7-0.3,1.4-0.5,2-0.5l0.2,0c1.4,0.1,2.3,0.9,2.8,1.4c0.3-0.3,0.6-0.5,0.8-0.7c0.8-0.5,1.6-0.8,2.6-0.8
		c1.2,0,2.1,0.4,2.8,1.1c1-0.7,2.1-1.1,3.2-1.1c0.7,0,1.3,0.2,1.8,0.5c0.2,0.1,0.3,0.2,0.4,0.3l0.9-4.2H45l-3.2,14.9h-3.6l0.1-0.5
		c-0.2,0.1-0.4,0.2-0.6,0.3c-0.6,0.3-1.3,0.5-2.2,0.5c-1.1,0-2-0.4-2.7-1.1c-1,0.7-2,1.1-3.2,1.1c-0.9,0-1.7-0.2-2.2-0.7
		c0,0,0,0-0.1-0.1l-1,4.6H22.6z M11.9,36.2c-0.2,0-0.3,0.1-0.6,0.1l-0.6,0.1c-0.7,0.1-1,0.2-1.2,0.3c-0.3,0.2-0.5,0.4-0.6,0.8
		c-0.1,0.3,0,0.5,0,0.5c0.1,0.1,0.3,0.2,0.5,0.2c0.5,0,1-0.1,1.5-0.4C11.4,37.6,11.7,37,11.9,36.2L11.9,36.2z M38.2,32.7
		c-0.6,0-1.1,0.2-1.5,0.7c-0.4,0.5-0.8,1.2-0.9,2c-0.2,0.8-0.2,1.5,0,2c0.1,0.3,0.3,0.6,1.1,0.6c0.6,0,1.1-0.2,1.6-0.7
		c0.5-0.5,0.8-1.2,0.9-2c0.2-1.1,0.1-1.8-0.3-2.3C38.8,32.8,38.5,32.7,38.2,32.7z M28.1,36.5c0,0.5,0.1,0.8,0.4,1
		c0.2,0.2,0.5,0.3,0.9,0.3c0.6,0,1.1-0.2,1.5-0.7c0.5-0.5,0.8-1.2,1-2.1c0.2-0.7,0.1-1.3-0.1-1.8c-0.1-0.3-0.3-0.6-1.1-0.6
		c-0.8,0-1.4,0.4-1.9,1.2c-0.1,0.1-0.2,0.3-0.2,0.5L28.1,36.5z M11.6,32.5c-0.5,0-0.9,0.1-1.1,0.3c-0.2,0.2-0.3,0.4-0.5,0.8L10,33.8
		c0.1,0,1.2-0.1,1.2-0.1c0.6-0.1,0.9-0.2,1-0.2c0.4-0.2,0.7-0.6,0.8-0.9c-0.1,0-0.4,0-0.7,0L11.6,32.5z"/>
	<path class="st1" d="M44.4,26.4l-3,13.9h-2.6l0.3-1.4c-0.5,0.6-1.1,1.1-1.6,1.3c-0.6,0.3-1.2,0.4-1.9,0.4c-1.2,0-2-0.5-2.6-1.3
		c-1,0.8-2.1,1.3-3.3,1.3c-0.8,0-1.5-0.2-1.9-0.6c-0.2-0.2-0.5-0.5-0.6-1l-1.2,5.3h-2.7l2.2-10.6c0.1-0.4,0.1-0.7,0-1
		c-0.1-0.5-0.5-0.7-1.2-0.7c-0.7,0-1.3,0.3-1.7,0.9c-0.2,0.3-0.4,0.7-0.5,1.2l-1.3,6.1H18l1.3-6.1c0.1-0.6,0.2-1.1,0.1-1.3
		c-0.1-0.5-0.5-0.7-1.2-0.7c-0.8,0-1.3,0.2-1.7,0.7c-0.2,0.3-0.4,0.7-0.5,1.3l-1.2,6.3h-2.9c0-0.2-0.1-0.4,0-0.6
		c0-0.2,0-0.4,0.1-0.6c-0.5,0.4-1,0.7-1.5,1c-0.7,0.3-1.4,0.5-2.1,0.5c-0.9,0-1.6-0.3-2.1-0.8c-0.5-0.5-0.6-1.3-0.4-2.3
		c0.3-1.3,1-2.2,2.1-2.8c0.6-0.3,1.4-0.5,2.5-0.7l0.9-0.1c0.5-0.1,0.9-0.1,1.1-0.2c0.9-0.3,1.3-1.6,1.1-1.8C13.3,32,12.7,32,12.3,32
		c-0.2,0-0.5,0-0.6,0c-0.6,0-1.1,0.2-1.5,0.5c-0.2,0.2-0.4,0.5-0.6,0.9H7c0.3-0.9,0.7-1.6,1.2-2.2c0.9-0.9,2.2-1.3,4-1.4
		c0,0,0.1,0,0.1,0c4,0,4.2,1.7,4.2,1.7c0.4-0.5,0.8-0.9,1.2-1.1c0.6-0.4,1.3-0.6,2.2-0.6c0.8,0,1.4,0.2,1.8,0.5
		c0.3,0.3,0.5,0.7,0.6,1.2c0.5-0.6,1-1.1,1.6-1.3c0.6-0.3,1.2-0.4,1.8-0.4c0,0,0.1,0,0.1,0c1.8,0.1,2.7,1.7,2.7,1.7
		c0.4-0.4,0.8-0.8,1.2-1.1c0.7-0.5,1.5-0.7,2.3-0.7c1.2,0,2.1,0.4,2.8,1.3c1-0.8,2.1-1.3,3.3-1.3c0.6,0,1.2,0.1,1.6,0.4
		c0.4,0.3,0.7,0.7,0.9,1.1l1-4.9H44.4 M29.4,38.4c0.8,0,1.4-0.3,1.9-0.9c0.5-0.6,0.9-1.4,1.1-2.3c0.2-0.8,0.1-1.5-0.1-2.1
		c-0.2-0.6-0.8-0.9-1.6-0.9c-1,0-1.7,0.5-2.3,1.4c-0.1,0.2-0.2,0.4-0.3,0.6l-0.5,2.3c0,0.6,0.2,1.1,0.5,1.4
		C28.5,38.2,28.9,38.4,29.4,38.4 M36.8,38.4c0.8,0,1.4-0.3,1.9-0.9c0.5-0.6,0.9-1.3,1.1-2.2c0.3-1.3,0.1-2.2-0.4-2.7
		c-0.3-0.3-0.7-0.5-1.3-0.5c-0.8,0-1.4,0.3-1.9,0.9c-0.5,0.6-0.8,1.3-1,2.2c-0.2,1-0.2,1.7,0.1,2.3C35.5,38.1,36,38.4,36.8,38.4
		 M9.5,38.8c0.6,0,1.2-0.2,1.7-0.5c0.6-0.3,0.9-1,1.2-1.9l0.2-1c-0.2,0.1-0.4,0.2-0.6,0.3c-0.2,0.1-0.4,0.1-0.8,0.2l-0.6,0.1
		c-0.6,0.1-1,0.2-1.3,0.4c-0.5,0.2-0.8,0.6-0.9,1.1c-0.1,0.5,0,0.8,0.2,1C8.9,38.7,9.2,38.8,9.5,38.8 M45.6,25.4h-1.2h-2.7h-0.8
		l-0.2,0.8l-0.6,3c-0.6-0.3-1.2-0.5-1.9-0.5c-1.1,0-2.2,0.3-3.2,0.9c-0.8-0.6-1.7-1-2.9-1c-1,0-2,0.3-2.8,0.9
		c-0.2,0.1-0.4,0.3-0.5,0.4c-0.6-0.6-1.5-1.2-2.8-1.2c-0.1,0-0.1,0-0.2,0c-0.7,0-1.5,0.2-2.2,0.5c-0.3,0.1-0.6,0.3-0.9,0.5
		c-0.1-0.1-0.1-0.2-0.2-0.2l0,0l0,0c-0.6-0.5-1.4-0.8-2.4-0.8c-1,0-1.9,0.3-2.7,0.8c-0.2,0.1-0.3,0.2-0.5,0.4
		c-0.7-0.6-2-1.2-4.3-1.2l-0.1,0c-2,0-3.6,0.6-4.7,1.7c-0.7,0.7-1.2,1.6-1.5,2.7l-0.4,1.3h1c-1,0.7-1.6,1.7-1.9,3
		c-0.3,1.6,0.2,2.6,0.7,3.2c0.7,0.7,1.7,1.1,2.9,1.1c0.9,0,1.7-0.2,2.5-0.6c0,0,0.1-0.1,0.1-0.1l0.1,0.4h0.8h2.9h0.8l0.2-0.8
		l1.2-6.3c0.1-0.5,0.2-0.8,0.3-0.9c0.1-0.1,0.2-0.3,0.9-0.3c0.1,0,0.2,0,0.2,0c0,0.1,0,0.3-0.1,0.9l-1.3,6.1l-0.3,1.2H18h2.7h0.8
		l0.2-0.8l1.3-6.1c0.1-0.3,0.2-0.6,0.3-0.8c0.2-0.3,0.5-0.5,0.9-0.5c0.1,0,0.2,0,0.2,0c0,0.1,0,0.2,0,0.5l-2.2,10.6L22,45.4h1.2h2.7
		h0.8l0.2-0.8l0.7-3.4c0.6,0.3,1.2,0.5,2,0.5c1.1,0,2.2-0.3,3.1-0.9c0.7,0.7,1.7,1,2.8,1c0.7,0,1.4-0.1,2-0.4l0,0h1.2h2.6h0.8
		l0.2-0.8l3-13.9L45.6,25.4L45.6,25.4z M10.9,33.2c0.2-0.1,0.5-0.2,0.7-0.2l0.2,0c-0.1,0-0.4,0.1-0.7,0.1L10.9,33.2L10.9,33.2z
		 M29.1,34.4c0.1-0.2,0.1-0.3,0.2-0.4c0.4-0.6,0.8-0.9,1.4-0.9c0.5,0,0.6,0.2,0.6,0.3c0.2,0.4,0.2,0.9,0.1,1.5
		c-0.2,0.8-0.5,1.4-0.8,1.9c-0.3,0.4-0.7,0.5-1.2,0.5c-0.4,0-0.5-0.1-0.6-0.2c-0.1-0.1-0.2-0.4-0.2-0.6L29.1,34.4L29.1,34.4z
		 M36.8,37.4c-0.5,0-0.6-0.2-0.6-0.3c-0.2-0.4-0.2-0.9,0-1.7c0.2-0.7,0.4-1.3,0.8-1.8c0.3-0.4,0.7-0.5,1.2-0.5
		c0.3,0,0.5,0.1,0.5,0.2c0.3,0.3,0.3,0.9,0.1,1.8c-0.2,0.7-0.4,1.3-0.8,1.7C37.7,37.2,37.3,37.4,36.8,37.4L36.8,37.4z M9.5,37.8
		C9.5,37.7,9.5,37.7,9.5,37.8c0.1-0.3,0.2-0.5,0.4-0.6c0.1,0,0.3-0.2,1-0.3l0.4-0.1c-0.1,0.2-0.3,0.4-0.5,0.5
		C10.3,37.6,9.9,37.8,9.5,37.8C9.5,37.8,9.5,37.8,9.5,37.8L9.5,37.8z"/>
</g>
</svg>
