<?xml version="1.0" encoding="utf-8"?>
<!-- Generator: Adobe Illustrator 27.3.1, SVG Export Plug-In . SVG Version: 6.00 Build 0)  -->
<svg version="1.1" id="Layer_1" xmlns="http://www.w3.org/2000/svg" xmlns:xlink="http://www.w3.org/1999/xlink" x="0px" y="0px"
	 viewBox="0 0 464.2 148.8" style="enable-background:new 0 0 464.2 148.8;" xml:space="preserve">
<style type="text/css">
	.st0{fill:url(#SVGID_1_);}
	.st1{fill:url(#SVGID_00000127751461822483752670000013568119171908497588_);}
	.st2{fill:url(#SVGID_00000015317881940328913570000017434696841125364118_);}
	.st3{fill:url(#SVGID_00000028285477389186511190000010405777516169360044_);}
	.st4{fill:url(#SVGID_00000162331677689373710260000000352193689697504399_);}
	.st5{fill:url(#SVGID_00000084518793676012110250000007567255410975657655_);}
	.st6{fill:#FFFFFF;}
</style>
<g>
	
		<image style="overflow:visible;opacity:0.6;" width="490" height="173" xlink:href="F006597EDC9678ED.png"  transform="matrix(1 0 0 1 -13.1455 -1.3707)">
	</image>
	<g>
		<g>
			<linearGradient id="SVGID_1_" gradientUnits="userSpaceOnUse" x1="50.4613" y1="51.2105" x2="50.4613" y2="119.1782">
				<stop  offset="0" style="stop-color:#FFFFFF"/>
				<stop  offset="0.199" style="stop-color:#D9EFF0"/>
				<stop  offset="0.6381" style="stop-color:#7CCFD6"/>
				<stop  offset="0.6841" style="stop-color:#71CBD3"/>
				<stop  offset="0.7703" style="stop-color:#6DCBD4"/>
				<stop  offset="0.8252" style="stop-color:#60C8D5"/>
				<stop  offset="0.8713" style="stop-color:#47C4D9"/>
				<stop  offset="0.9127" style="stop-color:#00BEDD"/>
				<stop  offset="0.9508" style="stop-color:#00B8E3"/>
				<stop  offset="0.986" style="stop-color:#00B0EA"/>
				<stop  offset="1" style="stop-color:#00AEEF"/>
			</linearGradient>
			<path class="st0" d="M68.6,119.2l-5.3-13.3H37l-5,13.3H14.1l28.5-68h15.9l28.2,68H68.6z M50.3,69.4l-8.6,23.3h17.1L50.3,69.4z"/>
			
				<linearGradient id="SVGID_00000161623818294863197040000018336677282252220059_" gradientUnits="userSpaceOnUse" x1="124.9272" y1="62.2169" x2="124.9272" y2="132.0089">
				<stop  offset="0" style="stop-color:#FFFFFF"/>
				<stop  offset="0.199" style="stop-color:#D9EFF0"/>
				<stop  offset="0.6381" style="stop-color:#7CCFD6"/>
				<stop  offset="0.6841" style="stop-color:#71CBD3"/>
				<stop  offset="0.7703" style="stop-color:#6DCBD4"/>
				<stop  offset="0.8252" style="stop-color:#60C8D5"/>
				<stop  offset="0.8713" style="stop-color:#47C4D9"/>
				<stop  offset="0.9127" style="stop-color:#00BEDD"/>
				<stop  offset="0.9508" style="stop-color:#00B8E3"/>
				<stop  offset="0.986" style="stop-color:#00B0EA"/>
				<stop  offset="1" style="stop-color:#00AEEF"/>
			</linearGradient>
			<path style="fill:url(#SVGID_00000161623818294863197040000018336677282252220059_);" d="M152,115.7c-1.4,3.4-3.3,6.2-5.9,8.6
				c-2.6,2.4-5.6,4.3-9.3,5.6c-3.6,1.3-7.6,2-12,2c-4.5,0-8.5-0.7-12.1-2c-3.6-1.3-6.6-3.2-9.1-5.6c-2.5-2.4-4.4-5.3-5.8-8.6
				c-1.3-3.4-2-7.1-2-11.2V62.2h16.3v41c0,1.9,0.2,3.6,0.7,5.3c0.5,1.7,1.2,3.2,2.2,4.5c1,1.3,2.3,2.4,3.9,3.1
				c1.6,0.8,3.6,1.2,5.9,1.2c2.3,0,4.3-0.4,5.9-1.2c1.6-0.8,3-1.8,4-3.1c1-1.3,1.8-2.8,2.2-4.5c0.4-1.7,0.7-3.4,0.7-5.3v-41h16.4
				v42.3C154.1,108.6,153.4,112.4,152,115.7z"/>
			
				<linearGradient id="SVGID_00000123439960258704579710000016577654530950898616_" gradientUnits="userSpaceOnUse" x1="195.1029" y1="47.2169" x2="195.1029" y2="115.1846">
				<stop  offset="0" style="stop-color:#FFFFFF"/>
				<stop  offset="0.199" style="stop-color:#D9EFF0"/>
				<stop  offset="0.6381" style="stop-color:#7CCFD6"/>
				<stop  offset="0.6841" style="stop-color:#71CBD3"/>
				<stop  offset="0.7703" style="stop-color:#6DCBD4"/>
				<stop  offset="0.8252" style="stop-color:#60C8D5"/>
				<stop  offset="0.8713" style="stop-color:#47C4D9"/>
				<stop  offset="0.9127" style="stop-color:#00BEDD"/>
				<stop  offset="0.9508" style="stop-color:#00B8E3"/>
				<stop  offset="0.986" style="stop-color:#00B0EA"/>
				<stop  offset="1" style="stop-color:#00AEEF"/>
			</linearGradient>
			<path style="fill:url(#SVGID_00000123439960258704579710000016577654530950898616_);" d="M203.7,115.2l-14.8-27h-5.6v27h-16v-68
				h25.9c3.3,0,6.4,0.3,9.6,1c3.1,0.7,5.9,1.8,8.4,3.4c2.5,1.6,4.4,3.7,5.9,6.3c1.5,2.6,2.2,5.9,2.2,9.8c0,4.6-1.2,8.5-3.7,11.6
				c-2.5,3.1-6,5.4-10.4,6.7l17.8,29.1H203.7z M203,68c0-1.6-0.3-2.9-1-3.9c-0.7-1-1.5-1.8-2.6-2.3c-1.1-0.5-2.3-0.9-3.6-1.1
				c-1.3-0.2-2.6-0.3-3.8-0.3h-8.8v15.8h7.8c1.3,0,2.7-0.1,4.1-0.3c1.4-0.2,2.7-0.6,3.9-1.2s2.1-1.4,2.8-2.5
				C202.7,71.2,203,69.8,203,68z"/>
			
				<linearGradient id="SVGID_00000159453099430246785630000018055288454801778048_" gradientUnits="userSpaceOnUse" x1="267.8002" y1="27.395" x2="267.8002" y2="99.0113">
				<stop  offset="0" style="stop-color:#FFFFFF"/>
				<stop  offset="0.199" style="stop-color:#D9EFF0"/>
				<stop  offset="0.6381" style="stop-color:#7CCFD6"/>
				<stop  offset="0.6841" style="stop-color:#71CBD3"/>
				<stop  offset="0.7703" style="stop-color:#6DCBD4"/>
				<stop  offset="0.8252" style="stop-color:#60C8D5"/>
				<stop  offset="0.8713" style="stop-color:#47C4D9"/>
				<stop  offset="0.9127" style="stop-color:#00BEDD"/>
				<stop  offset="0.9508" style="stop-color:#00B8E3"/>
				<stop  offset="0.986" style="stop-color:#00B0EA"/>
				<stop  offset="1" style="stop-color:#00AEEF"/>
			</linearGradient>
			<path style="fill:url(#SVGID_00000159453099430246785630000018055288454801778048_);" d="M304.8,62.9c0,5.4-0.9,10.3-2.8,14.7
				c-1.9,4.4-4.4,8.3-7.7,11.4c-3.3,3.2-7.2,5.6-11.8,7.3c-4.5,1.7-9.5,2.6-14.8,2.6c-5.3,0-10.2-0.9-14.7-2.6
				c-4.5-1.7-8.4-4.2-11.7-7.3c-3.3-3.2-5.9-7-7.7-11.4c-1.9-4.4-2.8-9.4-2.8-14.7c0-5.4,0.9-10.4,2.8-14.7
				c1.9-4.4,4.4-8.1,7.7-11.2c3.3-3.1,7.2-5.4,11.7-7.1c4.5-1.7,9.4-2.5,14.7-2.5c5.3,0,10.2,0.8,14.8,2.5c4.5,1.7,8.5,4,11.8,7.1
				c3.3,3.1,5.9,6.8,7.7,11.2C303.9,52.6,304.8,57.5,304.8,62.9z M287.2,62.9c0-2.9-0.5-5.7-1.4-8.3c-1-2.6-2.3-4.8-4-6.6
				c-1.7-1.8-3.7-3.3-6.1-4.3c-2.4-1.1-5-1.6-7.9-1.6s-5.5,0.5-7.9,1.6c-2.4,1.1-4.4,2.5-6.1,4.3c-1.7,1.8-3.1,4-4,6.6
				c-0.9,2.6-1.4,5.3-1.4,8.3c0,3.1,0.5,5.9,1.4,8.5s2.3,4.8,4,6.7c1.7,1.9,3.7,3.3,6.1,4.4c2.4,1.1,5,1.6,7.9,1.6s5.5-0.5,7.9-1.6
				c2.4-1.1,4.4-2.5,6.1-4.4c1.7-1.9,3.1-4.1,4-6.7S287.2,66,287.2,62.9z"/>
			
				<linearGradient id="SVGID_00000006704139947067567280000009190362350689752457_" gradientUnits="userSpaceOnUse" x1="345.4497" y1="13.2209" x2="345.4497" y2="81.1886">
				<stop  offset="0" style="stop-color:#FFFFFF"/>
				<stop  offset="0.199" style="stop-color:#D9EFF0"/>
				<stop  offset="0.6381" style="stop-color:#7CCFD6"/>
				<stop  offset="0.6841" style="stop-color:#71CBD3"/>
				<stop  offset="0.7703" style="stop-color:#6DCBD4"/>
				<stop  offset="0.8252" style="stop-color:#60C8D5"/>
				<stop  offset="0.8713" style="stop-color:#47C4D9"/>
				<stop  offset="0.9127" style="stop-color:#00BEDD"/>
				<stop  offset="0.9508" style="stop-color:#00B8E3"/>
				<stop  offset="0.986" style="stop-color:#00B0EA"/>
				<stop  offset="1" style="stop-color:#00AEEF"/>
			</linearGradient>
			<path style="fill:url(#SVGID_00000006704139947067567280000009190362350689752457_);" d="M354,81.2l-14.8-27h-5.6v27h-16v-68
				h25.9c3.3,0,6.4,0.3,9.6,1c3.1,0.7,5.9,1.8,8.4,3.4c2.5,1.6,4.4,3.7,5.9,6.3c1.5,2.6,2.2,5.9,2.2,9.8c0,4.6-1.2,8.5-3.7,11.6
				c-2.5,3.1-6,5.4-10.4,6.7l17.8,29.1H354z M353.4,34.1c0-1.6-0.3-2.9-1-3.9c-0.7-1-1.5-1.8-2.6-2.3c-1.1-0.5-2.3-0.9-3.6-1.1
				s-2.6-0.3-3.8-0.3h-8.8v15.8h7.8c1.3,0,2.7-0.1,4.1-0.3c1.4-0.2,2.7-0.6,3.9-1.2s2.1-1.4,2.8-2.5C353,37.2,353.4,35.8,353.4,34.1
				z"/>
			
				<linearGradient id="SVGID_00000068647545629541655590000012133391825720708481_" gradientUnits="userSpaceOnUse" x1="413.2928" y1="23.2257" x2="413.2928" y2="91.1934">
				<stop  offset="0" style="stop-color:#FFFFFF"/>
				<stop  offset="0.199" style="stop-color:#D9EFF0"/>
				<stop  offset="0.6381" style="stop-color:#7CCFD6"/>
				<stop  offset="0.6841" style="stop-color:#71CBD3"/>
				<stop  offset="0.7703" style="stop-color:#6DCBD4"/>
				<stop  offset="0.8252" style="stop-color:#60C8D5"/>
				<stop  offset="0.8713" style="stop-color:#47C4D9"/>
				<stop  offset="0.9127" style="stop-color:#00BEDD"/>
				<stop  offset="0.9508" style="stop-color:#00B8E3"/>
				<stop  offset="0.986" style="stop-color:#00B0EA"/>
				<stop  offset="1" style="stop-color:#00AEEF"/>
			</linearGradient>
			<path style="fill:url(#SVGID_00000068647545629541655590000012133391825720708481_);" d="M431.4,91.2l-5.3-13.3h-26.3l-5,13.3
				H377l28.5-68h15.9l28.2,68H431.4z M413.1,41.4l-8.6,23.3h17.1L413.1,41.4z"/>
		</g>
	</g>
</g>
<path class="st6" d="M112.1,62.2v41.9c0,1.7,0.2,3.4,0.7,4.9c0.5,1.6,1.2,2.9,2.2,4.2c1,1.2,2.3,2.2,3.9,2.9
	c1.6,0.7,3.6,1.1,5.9,1.1c2.3,0,4.3-0.4,5.9-1.1c1.6-0.7,3-1.7,4-2.9c1-1.2,1.8-2.6,2.2-4.2c0.4-1.6,0.7-3.2,0.7-4.9V62.2H112.1z"/>
<g>
	<g>
		<path class="st6" d="M50.3,69.4l-8.6,23.3h17.1L50.3,69.4z"/>
		<path class="st6" d="M203,68c0-1.6-0.3-2.9-1-3.9c-0.7-1-1.5-1.8-2.6-2.3c-1.1-0.5-2.3-0.9-3.6-1.1c-1.3-0.2-2.6-0.3-3.8-0.3h-8.8
			v15.8h7.8c1.3,0,2.7-0.1,4.1-0.3c1.4-0.2,2.7-0.6,3.9-1.2s2.1-1.4,2.8-2.5C202.7,71.2,203,69.8,203,68z"/>
		<path class="st6" d="M287.2,62.9c0-2.9-0.5-5.7-1.4-8.3c-1-2.6-2.3-4.8-4-6.6c-1.7-1.8-3.7-3.3-6.1-4.3c-2.4-1.1-5-1.6-7.9-1.6
			s-5.5,0.5-7.9,1.6c-2.4,1.1-4.4,2.5-6.1,4.3c-1.7,1.8-3.1,4-4,6.6c-0.9,2.6-1.4,5.3-1.4,8.3c0,3.1,0.5,5.9,1.4,8.5s2.3,4.8,4,6.7
			c1.7,1.9,3.7,3.3,6.1,4.4c2.4,1.1,5,1.6,7.9,1.6s5.5-0.5,7.9-1.6c2.4-1.1,4.4-2.5,6.1-4.4c1.7-1.9,3.1-4.1,4-6.7
			S287.2,66,287.2,62.9z"/>
		<path class="st6" d="M353.4,34.1c0-1.6-0.3-2.9-1-3.9c-0.7-1-1.5-1.8-2.6-2.3c-1.1-0.5-2.3-0.9-3.6-1.1s-2.6-0.3-3.8-0.3h-8.8
			v15.8h7.8c1.3,0,2.7-0.1,4.1-0.3c1.4-0.2,2.7-0.6,3.9-1.2s2.1-1.4,2.8-2.5C353,37.2,353.4,35.8,353.4,34.1z"/>
		<path class="st6" d="M413.1,41.4l-8.6,23.3h17.1L413.1,41.4z"/>
	</g>
</g>
</svg>
