<?xml version="1.0" encoding="utf-8"?>
<!-- Generator: Adobe Illustrator 27.3.0, SVG Export Plug-In . SVG Version: 6.00 Build 0)  -->
<svg version="1.1" id="Layer_1" xmlns="http://www.w3.org/2000/svg" xmlns:xlink="http://www.w3.org/1999/xlink" x="0px" y="0px"
	 viewBox="0 0 265 50" style="enable-background:new 0 0 265 50;" xml:space="preserve">
<style type="text/css">
	.st0{fill:#ED1C24;}
	.st1{fill:#FFFFFF;}
	.st2{fill:#1B75BB;}
	.st3{fill:#6D6E70;}
</style>
<g>
	<path class="st0" d="M236.4,48.5l-19.9-19.9c-2-2-2-5.2,0-7.2l19.9-20c2-2,5.2-2,7.2,0l19.9,19.9c2,2,2,5.2,0,7.2l-19.9,20
		C241.6,50.5,238.4,50.5,236.4,48.5z"/>
	<path class="st1" d="M239.8,30.7h0.5c2.1,0,3.2,1.3,3.2,4c0,1-0.2,1.7-0.5,2.1s-1,0.5-1.9,0.5h-0.6c0.3-0.9,0.5-1.8,0.5-2.5
		C240.9,33.5,240.5,32.1,239.8,30.7z M240.4,11.7h0.7c0.9,0,1.4,0.2,1.8,0.6c0.3,0.4,0.5,1,0.5,2c0,2.7-1,4.1-3,4.1h-0.6
		c0.7-1.3,1.1-2.7,1.1-4.2C240.7,13.2,240.6,12.5,240.4,11.7z M235.6,13.1c1.1-1.5,2.7-1.3,4.3-1.5c0.2,0.8,0.3,1.6,0.3,2.4
		c0,1.3-0.4,2.8-1.1,4.2h-0.3c-1.4,0-2.1,2.1-2.1,6.1c0,4.2,0.7,6.3,2.1,6.3h0.3c0.8,1.4,1.2,2.8,1.2,4.2c0,0.8-0.2,1.7-0.5,2.5
		c-1.5-0.2-3-0.3-4.2-1.5c-1.3-1.3-1.1-3.6-1.5-5.4c-0.3-1.9-0.5-3.9-0.5-5.9s0.2-4.1,0.5-5.9C234.4,16.7,234.4,14.7,235.6,13.1z"/>
</g>
<g>
	<path class="st2" d="M93.1,48.5L73.2,28.6c-2-2-2-5.2,0-7.2L93.1,1.5c2-2,5.2-2,7.2,0l19.9,19.9c2,2,2,5.2,0,7.2l-19.9,19.9
		C98.3,50.5,95.1,50.5,93.1,48.5z"/>
	<path class="st1" d="M96.6,29L96.6,29c-1.9,0-3.4-1.5-3.4-3.4V14.3c0-1.9,1.5-3.4,3.4-3.4h0c1.9,0,3.4,1.5,3.4,3.4v11.2
		C100,27.5,98.5,29,96.6,29z"/>
	<g>
		<path class="st1" d="M96.6,32.8c-4.1,0-7.4-3.2-7.6-7.3c0,0,0,3.8,0-5.7l0-0.2c0-0.4,0.4-0.8,0.8-0.8c0.4,0,0.8,0.4,0.8,0.8l0,0.3
			c0,5.9,0,5.4,0,5.7c0.2,3.2,2.8,5.7,6,5.7c1.6,0,3.1-0.6,4.2-1.7c1.1-1.1,1.8-2.5,1.8-4.1c0-0.2,0,0.1,0-5.7l0-0.2
			c0-0.4,0.4-0.8,0.8-0.8c0.4,0,0.8,0.4,0.8,0.8l0,0.2c0,9.5,0,5.7,0,5.7c-0.1,2-0.9,3.8-2.3,5.2C100.5,32.1,98.6,32.8,96.6,32.8z"
			/>
	</g>
	<g>
		<rect x="95.8" y="32" class="st1" width="1.6" height="6.6"/>
	</g>
	<g>
		<path class="st1" d="M101.1,39.5h-8.9c-0.4,0-0.8-0.4-0.8-0.8c0-0.4,0.4-0.8,0.8-0.8h8.9c0.4,0,0.8,0.4,0.8,0.8
			C101.9,39.1,101.6,39.5,101.1,39.5z"/>
	</g>
</g>
<g>
	<path class="st3" d="M21.4,48.5L1.5,28.6c-2-2-2-5.2,0-7.2L21.4,1.5c2-2,5.2-2,7.2,0l19.9,19.9c2,2,2,5.2,0,7.2L28.6,48.5
		C26.6,50.5,23.4,50.5,21.4,48.5z"/>
	<path class="st1" d="M37.2,21.7l-2.4,0.4v-2.7c0-0.6-0.5-1.1-1.1-1.1H13.2c-0.6,0-1.1,0.5-1.1,1.1v11.8c0,0.6,0.5,1.1,1.1,1.1h20.4
		c0.6,0,1.1-0.5,1.1-1.1v-2.7l2.4,0.3c0.8,0,1.5-0.7,1.5-1.5v-4.1C38.7,22.4,38,21.7,37.2,21.7z"/>
	<g>
		<path class="st1" d="M14.2,37.4c-0.4,0-0.8-0.2-1.1-0.4l-0.5-0.5c-0.6-0.6-0.6-1.5,0-2.1l21.7-21.7c0.3-0.3,0.7-0.4,1.1-0.4
			s0.8,0.2,1.1,0.4l0.5,0.5c0.6,0.6,0.6,1.5,0,2.1L15.2,37C14.9,37.2,14.6,37.4,14.2,37.4z"/>
		<path class="st3" d="M35.4,13.2c0.1,0,0.3,0.1,0.4,0.2l0.5,0.5c0.2,0.2,0.2,0.5,0,0.7L14.5,36.3c-0.1,0.1-0.2,0.2-0.4,0.2
			s-0.3-0.1-0.4-0.2l-0.5-0.5c-0.2-0.2-0.2-0.5,0-0.7L35,13.3C35.2,13.2,35.3,13.2,35.4,13.2 M35.4,11.2c-0.7,0-1.3,0.3-1.8,0.7
			L11.9,33.7c-0.5,0.5-0.7,1.1-0.7,1.8c0,0.7,0.3,1.3,0.7,1.8l0.5,0.5c0.5,0.5,1.1,0.7,1.8,0.7c0.7,0,1.3-0.3,1.8-0.7l21.7-21.7
			c1-1,1-2.5,0-3.5l-0.5-0.5C36.7,11.5,36.1,11.2,35.4,11.2L35.4,11.2z"/>
	</g>
</g>
<g>
	<path class="st3" d="M164.7,48.5l-19.9-19.9c-2-2-2-5.2,0-7.2l19.9-19.9c2-2,5.2-2,7.2,0l19.9,19.9c2,2,2,5.2,0,7.2l-19.9,19.9
		C169.9,50.5,166.7,50.5,164.7,48.5z"/>
	<g>
		<path class="st1" d="M163.2,33.4l-0.7,2.8c-0.2,0.6,0.3,1.1,0.9,1.1h9.9c0.6,0,1-0.6,0.9-1.1l-0.7-2.8c-0.1-0.4-0.5-0.7-0.9-0.7
			h-8.4C163.7,32.7,163.3,33,163.2,33.4z"/>
	</g>
	<g>
		<path class="st1" d="M176.5,16.6h-16.3c-1.3,0-2.3,1-2.3,2.3v10.1c0,1.3,1,2.3,2.3,2.3h16.3c1.3,0,2.3-1,2.3-2.3V18.9
			C178.8,17.7,177.8,16.6,176.5,16.6z M172.7,24.1l-0.4,0.4c-0.1,0.1-0.2,0.1-0.4,0.1c-0.1,0-0.3-0.1-0.4-0.2l-2.5-2.6v6.9
			c0,0.3-0.2,0.5-0.5,0.5h-0.5c-0.3,0-0.5-0.2-0.5-0.5v-6.9l-2.5,2.7c-0.1,0.1-0.2,0.2-0.4,0.2c-0.1,0-0.3,0-0.4-0.1l-0.4-0.4
			c-0.2-0.2-0.2-0.5,0-0.7l4-4.3c0.1-0.1,0.2-0.2,0.4-0.2c0.1,0,0.3,0.1,0.4,0.2l4,4.3C172.9,23.6,172.9,23.9,172.7,24.1z"/>
	</g>
</g>
</svg>
