<?xml version="1.0" encoding="utf-8"?>
<!-- Generator: Adobe Illustrator 27.3.0, SVG Export Plug-In . SVG Version: 6.00 Build 0)  -->
<svg version="1.1" id="Layer_1" xmlns="http://www.w3.org/2000/svg" xmlns:xlink="http://www.w3.org/1999/xlink" x="0px" y="0px"
	 viewBox="0 0 99.8 25" style="enable-background:new 0 0 99.8 25;" xml:space="preserve">
<style type="text/css">
	.st0{fill:#666766;}
</style>
<path class="st0" d="M24.2,10.5l-9.6-9.6c-1.1-1.1-3-1.1-4.1,0l-9.6,9.6c-1.1,1.1-1.1,3,0,4.1l9.6,9.6c1.1,1.1,3,1.1,4.1,0l9.6-9.6
	C25.3,13.4,25.3,11.6,24.2,10.5z M9.5,11.2c-0.3-0.3-0.5-0.5-0.8-0.6c-0.3-0.1-0.6-0.2-1-0.2c-0.3,0-0.6,0.1-0.9,0.2
	c-0.3,0.1-0.5,0.3-0.7,0.5c-0.2,0.2-0.4,0.4-0.5,0.7c-0.1,0.3-0.2,0.6-0.2,0.9c0,0.3,0.1,0.6,0.2,0.9c0.1,0.3,0.3,0.5,0.5,0.7
	c0.2,0.2,0.4,0.4,0.7,0.5c0.3,0.1,0.6,0.2,0.9,0.2c0.3,0,0.6-0.1,0.9-0.2c0.1,0,0.2-0.1,0.3-0.2v-2h1.5v2.8
	c-0.4,0.3-0.8,0.5-1.3,0.7c-0.5,0.1-1,0.2-1.5,0.2c-0.5,0-1.1-0.1-1.5-0.3c-0.5-0.2-0.9-0.4-1.2-0.8c-0.3-0.3-0.6-0.7-0.8-1.1
	s-0.3-0.9-0.3-1.4s0.1-1,0.3-1.4c0.2-0.4,0.5-0.8,0.8-1.1c0.3-0.3,0.7-0.6,1.2-0.7C6.6,9.1,7.1,9,7.7,9c0.6,0,1.2,0.1,1.7,0.3
	c0.5,0.2,0.9,0.5,1.2,0.9L9.5,11.2z M13.5,16.1h-1.6V9.2h1.6V16.1z M20.4,10.4h-3.6v1.8H20v1.3h-3.2v2.5h-1.6V9.2h5.2V10.4z"/>
<path class="st0" d="M44.9,1c0.5,0,1,0.2,1.3,0.6l9.6,9.6c0.4,0.4,0.6,0.8,0.6,1.3s-0.2,1-0.6,1.3l-9.6,9.6
	c-0.4,0.4-0.8,0.6-1.3,0.6s-1-0.2-1.3-0.6l-9.6-9.6c-0.4-0.4-0.6-0.8-0.6-1.3s0.2-1,0.6-1.3l9.6-9.6C43.9,1.2,44.4,1,44.9,1 M44.9,0
	c-0.7,0-1.5,0.3-2,0.8l-9.6,9.6c-1.1,1.1-1.1,3,0,4.1l9.6,9.6c0.6,0.6,1.3,0.8,2,0.8s1.5-0.3,2-0.8l9.6-9.6c1.1-1.1,1.1-3,0-4.1
	l-9.6-9.6C46.4,0.3,45.6,0,44.9,0L44.9,0z"/>
<path class="st0" d="M88.9,10.5l-9.6-9.6c-1.1-1.1-3-1.1-4.1,0l-9.6,9.6c-1.1,1.1-1.1,3,0,4.1l9.6,9.6c1.1,1.1,3,1.1,4.1,0l9.6-9.6
	C90,13.4,90,11.6,88.9,10.5z M82.8,12h-2.9v7.1c0,0.5-0.4,1-1,1h-3.3c-0.5,0-1-0.4-1-1V12h-2.9c-0.8,0-1.2-1-0.6-1.5l5.5-5.4
	c0.3-0.3,0.9-0.3,1.2,0l5.5,5.4C84,11.1,83.6,12,82.8,12z"/>
<path class="st0" d="M44.9,5.4c-3.9,0-7.1,3.2-7.1,7.1c0,3.9,3.2,7.1,7.1,7.1c3.9,0,7.1-3.2,7.1-7.1C52,8.6,48.8,5.4,44.9,5.4z
	 M40.8,10.5c0-0.8,0.4-1.5,0.9-1.5c0.5,0,0.9,0.7,0.9,1.5c0,0.8-0.4,1.5-0.9,1.5C41.2,12,40.8,11.3,40.8,10.5z M44.9,17.6
	c-2,0-3.6-1.6-3.6-3.6c0-0.2,0-0.5,0.1-0.7c0.3,1.7,1.8,3,3.6,3c1.8,0,3.2-1.3,3.6-3c0,0.2,0.1,0.4,0.1,0.7
	C48.5,16,46.9,17.6,44.9,17.6z M48,12c-0.5,0-0.9-0.7-0.9-1.5C47.1,9.7,47.5,9,48,9c0.5,0,0.9,0.7,0.9,1.5C48.9,11.3,48.5,12,48,12z
	"/>
</svg>
