<?xml version="1.0" encoding="utf-8"?>
<!-- Generator: Adobe Illustrator 27.3.0, SVG Export Plug-In . SVG Version: 6.00 Build 0)  -->
<svg version="1.1" id="Layer_1" xmlns="http://www.w3.org/2000/svg" xmlns:xlink="http://www.w3.org/1999/xlink" x="0px" y="0px"
	 viewBox="0 0 36 50" style="enable-background:new 0 0 36 50;" xml:space="preserve">
<style type="text/css">
	.st0{fill:#262262;}
	.st1{fill:#FFFFFF;}
	.st2{fill:#1C75BC;}
	.st3{fill:#2E3192;}
</style>
<g>
	<rect x="6.3" y="6.2" transform="matrix(0.7071 -0.7071 0.7071 0.7071 -7.3401 17.9581)" class="st0" width="23.4" height="23.4"/>
	<path class="st1" d="M18,35.7c-0.3,0-0.7-0.1-0.9-0.4L0.6,18.8c-0.5-0.5-0.5-1.4,0-1.9L17.1,0.4c0.5-0.5,1.4-0.5,1.9,0l16.5,16.5
		c0.5,0.5,0.5,1.4,0,1.9L18.9,35.3C18.7,35.5,18.4,35.7,18,35.7z M3.4,17.8L18,32.5l14.7-14.7L18,3.2L3.4,17.8z"/>
</g>
<g>
	
		<rect x="6.3" y="20.5" transform="matrix(0.7071 -0.7071 0.7071 0.7071 -17.4668 22.1527)" class="st2" width="23.4" height="23.4"/>
	<path class="st1" d="M18,50c-0.3,0-0.7-0.1-0.9-0.4L0.6,33.1c-0.5-0.5-0.5-1.3,0-1.9l16.5-16.5c0.5-0.5,1.4-0.5,1.9,0l16.5,16.5
		c0.5,0.5,0.5,1.3,0,1.9L18.9,49.6C18.7,49.9,18.3,50,18,50z M3.4,32.2L18,46.8l14.7-14.7L18,17.5L3.4,32.2z"/>
</g>
<g>
	<polygon class="st3" points="1.5,17.8 1.5,32.2 18,15.6 18,1.3 	"/>
	<path class="st1" d="M1.5,33.5c-0.2,0-0.3,0-0.5-0.1c-0.5-0.2-0.8-0.7-0.8-1.2l0-14.4c0-0.3,0.1-0.7,0.4-0.9L17.1,0.4
		C17.5,0,18-0.1,18.5,0.1c0.5,0.2,0.8,0.7,0.8,1.2v14.3c0,0.4-0.1,0.7-0.4,0.9L2.4,33.1C2.2,33.3,1.8,33.5,1.5,33.5z M2.8,18.4
		l0,10.6l13.9-13.9V4.5L2.8,18.4z"/>
</g>
</svg>
