<?xml version="1.0" encoding="utf-8"?>
<!-- Generator: Adobe Illustrator 27.3.1, SVG Export Plug-In . SVG Version: 6.00 Build 0)  -->
<svg version="1.1" xmlns="http://www.w3.org/2000/svg" xmlns:xlink="http://www.w3.org/1999/xlink" x="0px" y="0px"
	 viewBox="0 0 187.1 86.6" style="enable-background:new 0 0 187.1 86.6;" xml:space="preserve">
<style type="text/css">
	.st0{fill:#ED2024;}
	.st1{fill:#00A651;}
	.st2{fill:#3953A4;}
	.st3{fill:#6ABD45;}
	.st4{fill:#414042;}
	.st5{fill:#FFFFFF;}
	.st6{fill:none;stroke:#ED1C24;stroke-miterlimit:10;}
</style>
<g id="Layer_1">
	<g>
		<path class="st0" d="M72.3,7.1C72.3,8,72.2,9,72.1,9.9c-1.7-0.1-3.3-0.3-5-0.4c0.1-0.9,0.2-1.8,0.2-2.7l-2.8-0.2
			c-0.4,4.9-0.8,9.8-1.2,14.7c-0.1,1.5-0.7,2-2.2,1.9c-16.4-1.4-25.7-2.7-42.1-4c-1.4-0.1-1.9-0.7-1.8-2.1c0.4-4.9,0.8-9.9,1.2-14.8
			l-2.8-0.2c-0.1,0.9-0.2,1.8-0.2,2.7c-1.7-0.1-3.3-0.3-5-0.4c0.1-0.9,0.2-1.8,0.2-2.7L8.4,1.3L2,79.6l2.4,0.2
			c0.1-0.9,0.1-1.8,0.2-2.7c0.8,0.1,1.7,0.1,2.5,0.2c0.8,0.1,1.7,0.1,2.5,0.2c-0.1,0.9-0.1,1.8-0.2,2.7l2.8,0.2
			c0.4-4.9,0.8-9.8,1.2-14.7c0.1-1.5,0.6-2,2.1-1.9c8.2,0.7,13.4,1.4,21.6,2c8.2,0.7,12.4,1.4,20.6,2c1.4,0.1,1.9,0.6,1.8,2.1
			c-0.4,4.9-0.8,9.8-1.2,14.7L61,85c0.1-0.9,0.1-1.8,0.2-2.7c0.8,0.1,1.7,0.1,2.5,0.2c0.8,0.1,1.7,0.1,2.5,0.2
			c-0.1,0.9-0.1,1.8-0.2,2.7l2.7,0.2L75,7.4L72.3,7.1z M10.3,7.2c0.8,0.1,4.1,0.3,5,0.4c-0.1,1.4-0.2,2.7-0.3,4.1
			c-1.7-0.1-3.3-0.3-5-0.4C10.1,9.9,10.2,8.5,10.3,7.2z M9.8,14.2c0.8,0.1,4.1,0.3,5,0.4c-0.1,1.4-0.2,2.7-0.3,4.1
			c-1.7-0.1-3.3-0.3-5-0.4C9.5,16.9,9.7,15.5,9.8,14.2z M9.8,74.7c-1.7-0.1-3.3-0.3-5-0.4c0.1-1.4,0.2-2.7,0.3-4.1
			c0.8,0.1,1.7,0.1,2.5,0.2c0.8,0.1,1.7,0.1,2.5,0.2C10,71.9,9.9,73.3,9.8,74.7z M10.4,67.7c-1.7-0.1-3.3-0.3-5-0.4
			c0.1-1.4,0.2-2.7,0.3-4.1c0.8,0.1,1.7,0.1,2.5,0.2c0.8,0.1,1.7,0.1,2.5,0.2C10.6,64.9,10.5,66.3,10.4,67.7z M10.9,60.7
			c-1.7-0.1-3.3-0.3-5-0.4c0.1-1.4,0.2-2.7,0.3-4.1c0.8,0.1,1.7,0.1,2.5,0.2c0.8,0.1,1.7,0.1,2.5,0.2C11.2,57.9,11.1,59.3,10.9,60.7
			z M11.5,53.7c-1.7-0.1-3.3-0.3-5-0.4c0.1-1.4,0.2-2.7,0.3-4.1c0.8,0.1,1.7,0.1,2.5,0.2c0.8,0.1,1.7,0.1,2.5,0.2
			C11.7,50.9,11.6,52.3,11.5,53.7z M12.1,46.7c-1.7-0.1-3.3-0.3-5-0.4c0.1-1.4,0.2-2.7,0.3-4.1c0.8,0.1,1.7,0.1,2.5,0.2
			c0.8,0.1,1.7,0.1,2.5,0.2C12.3,43.9,12.2,45.3,12.1,46.7z M12.7,39.7c-1.7-0.1-3.3-0.3-5-0.4c0.1-1.4,0.2-2.7,0.3-4.1
			c0.8,0.1,1.7,0.1,2.5,0.2c0.8,0.1,1.7,0.1,2.5,0.2C12.9,36.9,12.8,38.3,12.7,39.7z M13.2,32.7c-1.7-0.1-3.3-0.3-5-0.4
			c0.1-1.4,0.2-2.7,0.3-4.1c0.8,0.1,1.7,0.1,2.5,0.2c0.8,0.1,1.7,0.1,2.5,0.2C13.5,29.9,13.3,31.3,13.2,32.7z M13.8,25.7
			c-1.7-0.1-3.3-0.3-5-0.4c0.1-1.4,0.2-2.7,0.3-4.1c0.8,0.1,1.7,0.1,2.5,0.2c0.8,0.1,1.7,0.1,2.5,0.2C14,22.9,13.9,24.3,13.8,25.7z
			 M60,63.2c-0.1,1.5-0.7,2-2.2,1.9c-16.4-1.4-25.7-2.7-42.1-4c-1.4-0.1-1.9-0.7-1.8-2.1c1-11.7,2-23.4,2.9-35.1
			c0.1-1.5,0.6-2,2.1-1.9c8.2,0.7,13.4,1.4,21.6,2c8.2,0.7,12.4,1.4,20.6,2c1.4,0.1,1.9,0.6,1.8,2.1C61.8,39.8,60.9,51.5,60,63.2z
			 M66.4,79.9c-1.7-0.1-3.3-0.3-5-0.4c0.1-1.4,0.2-2.7,0.3-4.1c0.8,0.1,1.7,0.1,2.5,0.2c0.8,0.1,1.7,0.1,2.5,0.2
			C66.6,77.1,66.5,78.5,66.4,79.9z M66.9,72.9c-1.7-0.1-3.3-0.3-5-0.4c0.1-1.4,0.2-2.7,0.3-4.1c0.8,0.1,1.7,0.1,2.5,0.2
			c0.8,0.1,1.7,0.1,2.5,0.2C67.2,70.1,67.1,71.5,66.9,72.9z M67.5,65.9c-1.7-0.1-3.3-0.3-5-0.4c0.1-1.4,0.2-2.7,0.3-4.1
			c0.8,0.1,1.7,0.1,2.5,0.2c0.8,0.1,1.7,0.1,2.5,0.2C67.7,63.1,67.6,64.5,67.5,65.9z M68.1,58.9c-1.7-0.1-3.3-0.3-5-0.4
			c0.1-1.4,0.2-2.7,0.3-4.1c0.8,0.1,1.7,0.1,2.5,0.2c0.8,0.1,1.7,0.1,2.5,0.2C68.3,56.1,68.2,57.5,68.1,58.9z M68.7,51.9
			c-1.7-0.1-3.3-0.3-5-0.4c0.1-1.4,0.2-2.7,0.3-4.1c0.8,0.1,1.7,0.1,2.5,0.2c0.8,0.1,1.7,0.1,2.5,0.2C68.9,49.1,68.8,50.5,68.7,51.9
			z M69.2,44.9c-1.7-0.1-3.3-0.3-5-0.4c0.1-1.4,0.2-2.7,0.3-4.1c0.8,0.1,1.7,0.1,2.5,0.2c0.8,0.1,1.7,0.1,2.5,0.2
			C69.5,42.1,69.3,43.5,69.2,44.9z M69.8,37.9c-1.7-0.1-3.3-0.3-5-0.4c0.1-1.4,0.2-2.7,0.3-4.1c0.8,0.1,1.7,0.1,2.5,0.2
			c0.8,0.1,1.7,0.1,2.5,0.2C70,35.1,69.9,36.5,69.8,37.9z M70.4,30.9c-1.7-0.1-3.3-0.3-5-0.4c0.1-1.4,0.2-2.7,0.3-4.1
			c0.8,0.1,1.7,0.1,2.5,0.2c0.8,0.1,1.7,0.1,2.5,0.2C70.6,28.1,70.5,29.5,70.4,30.9z M71,23.9c-1.7-0.1-3.3-0.3-5-0.4
			c0.1-1.4,0.2-2.7,0.3-4.1c0.8,0.1,1.7,0.1,2.5,0.2c0.8,0.1,1.7,0.1,2.5,0.2C71.2,21.1,71.1,22.5,71,23.9z M71.5,16.9
			c-1.7-0.1-3.3-0.3-5-0.4c0.1-1.4,0.2-2.7,0.3-4.1c0.8,0.1,1.7,0.1,2.5,0.2c0.8,0.1,1.7,0.1,2.5,0.2C71.8,14.1,71.6,15.5,71.5,16.9
			z"/>
		<path class="st1" d="M72.9,8.2c-0.1,0.8-0.2,1.5-0.2,2.3c-1.6-0.2-3.3-0.3-4.9-0.5c0.1-0.8,0.1-1.5,0.2-2.3l-2.8-0.3
			c-0.5,4.7-0.9,9.5-1.4,14.2c-0.1,1.5-0.7,2-2.2,1.8c-16.3-1.6-25.7-3.3-42-4.9c-1.4-0.1-1.9-0.7-1.8-2.1c0.5-4.8,1-9.5,1.4-14.3
			L16.4,2c-0.1,0.8-0.2,1.5-0.2,2.3c-1.6-0.2-3.3-0.3-4.9-0.5c0.1-0.8,0.1-1.5,0.2-2.3L9.1,1.2L1.4,78.3l2.4,0.2
			C3.9,77.9,4,77.2,4,76.5c0.8,0.1,1.6,0.2,2.5,0.2C7.3,76.8,8.2,76.9,9,77c-0.1,0.7-0.1,1.4-0.2,2.1l2.8,0.3
			c0.5-4.7,0.9-9.4,1.4-14c0.1-1.5,0.7-2,2.2-1.8c8.2,0.9,13.3,1.6,21.5,2.5c8.2,0.8,12.3,1.6,20.5,2.4c1.4,0.1,1.9,0.7,1.8,2.1
			c-0.5,4.7-1,9.4-1.4,14.1l2.8,0.3c0.1-0.7,0.1-1.4,0.2-2.1c0.8,0.1,1.6,0.2,2.5,0.2c0.8,0.1,1.6,0.2,2.5,0.2
			c-0.1,0.7-0.1,1.4-0.2,2.1l2.7,0.3l7.6-77.1L72.9,8.2z M11,6.6c0.8,0.1,4.1,0.4,4.9,0.5c-0.1,1.4-0.3,2.7-0.4,4.1
			c-1.6-0.2-3.3-0.3-4.9-0.5C10.7,9.4,10.8,8,11,6.6z M10.3,13.6c0.8,0.1,4.1,0.4,4.9,0.5c-0.1,1.4-0.3,2.7-0.4,4.1
			c-1.6-0.2-3.3-0.3-4.9-0.5C10,16.4,10.1,15,10.3,13.6z M9.6,20.6c0.8,0.1,1.6,0.2,2.5,0.2c0.8,0.1,1.6,0.2,2.5,0.2
			c-0.1,1.4-0.3,2.7-0.4,4.1c-1.6-0.2-3.3-0.3-4.9-0.5C9.3,23.3,9.4,22,9.6,20.6z M9.3,74.1c-1.6-0.2-3.3-0.3-4.9-0.5
			c0.1-1.4,0.3-2.7,0.4-4.1c0.8,0.1,1.6,0.2,2.5,0.2C8,69.9,8.9,69.9,9.7,70C9.5,71.4,9.4,72.7,9.3,74.1z M10,67.1
			C8.3,67,6.7,66.8,5,66.6c0.1-1.4,0.3-2.7,0.4-4.1c0.8,0.1,1.6,0.2,2.5,0.2c0.8,0.1,1.6,0.2,2.5,0.2C10.2,64.4,10.1,65.8,10,67.1z
			 M10.7,60.1C9,60,7.4,59.8,5.7,59.6c0.1-1.4,0.3-2.7,0.4-4.1c0.8,0.1,1.6,0.2,2.5,0.2c0.8,0.1,1.6,0.2,2.5,0.2
			C10.9,57.4,10.8,58.8,10.7,60.1z M11.4,53.2c-1.6-0.2-3.3-0.3-4.9-0.5c0.1-1.4,0.3-2.7,0.4-4.1c0.8,0.1,1.6,0.2,2.5,0.2
			c0.8,0.1,1.6,0.2,2.5,0.2C11.6,50.4,11.5,51.8,11.4,53.2z M12,46.2c-1.6-0.2-3.3-0.3-4.9-0.5c0.1-1.4,0.3-2.7,0.4-4.1
			c0.8,0.1,1.6,0.2,2.5,0.2c0.8,0.1,1.6,0.2,2.5,0.2C12.3,43.4,12.2,44.8,12,46.2z M12.7,39.2c-1.6-0.2-3.3-0.3-4.9-0.5
			c0.1-1.4,0.3-2.7,0.4-4.1c0.8,0.1,1.6,0.2,2.5,0.2c0.8,0.1,1.6,0.2,2.5,0.2C13,36.4,12.9,37.8,12.7,39.2z M13.4,32.2
			c-1.6-0.2-3.3-0.3-4.9-0.5c0.1-1.4,0.3-2.7,0.4-4.1c0.8,0.1,1.6,0.2,2.5,0.2c0.8,0.1,1.6,0.2,2.5,0.2
			C13.7,29.4,13.6,30.8,13.4,32.2z M59.6,63.6c-0.1,1.5-0.7,2-2.2,1.8c-16.3-1.6-25.7-3.3-42-4.9c-1.4-0.1-1.9-0.7-1.8-2.1
			c1.2-11.7,2.4-23.4,3.5-35.1c0.1-1.5,0.7-2,2.2-1.8c8.2,0.9,13.3,1.6,21.5,2.5c8.2,0.8,12.3,1.6,20.5,2.4c1.4,0.1,1.9,0.7,1.8,2.1
			C61.9,40.2,60.7,51.9,59.6,63.6z M65.8,80.4c-1.6-0.2-3.3-0.3-4.9-0.5c0.1-1.4,0.3-2.7,0.4-4.1c0.8,0.1,1.6,0.2,2.5,0.2
			c0.8,0.1,1.6,0.2,2.5,0.2C66,77.7,65.9,79,65.8,80.4z M66.4,73.4c-1.6-0.2-3.3-0.3-4.9-0.5c0.1-1.4,0.3-2.7,0.4-4.1
			c0.8,0.1,1.6,0.2,2.5,0.2c0.8,0.1,1.6,0.2,2.5,0.2C66.7,70.7,66.6,72,66.4,73.4z M67.1,66.4c-1.6-0.2-3.3-0.3-4.9-0.5
			c0.1-1.4,0.3-2.7,0.4-4.1c0.8,0.1,1.6,0.2,2.5,0.2c0.8,0.1,1.6,0.2,2.5,0.2C67.4,63.7,67.3,65.1,67.1,66.4z M67.8,59.4
			c-1.6-0.2-3.3-0.3-4.9-0.5c0.1-1.4,0.3-2.7,0.4-4.1c0.8,0.1,1.6,0.2,2.5,0.2c0.8,0.1,1.6,0.2,2.5,0.2C68.1,56.7,68,58.1,67.8,59.4
			z M68.5,52.4c-1.6-0.2-3.3-0.3-4.9-0.5c0.1-1.4,0.3-2.7,0.4-4.1c0.8,0.1,1.6,0.2,2.5,0.2c0.8,0.1,1.6,0.2,2.5,0.2
			C68.8,49.7,68.7,51.1,68.5,52.4z M69.2,45.5c-1.6-0.2-3.3-0.3-4.9-0.5c0.1-1.4,0.3-2.7,0.4-4.1c0.8,0.1,1.6,0.2,2.5,0.2
			c0.8,0.1,1.6,0.2,2.5,0.2C69.5,42.7,69.3,44.1,69.2,45.5z M69.9,38.5c-1.6-0.2-3.3-0.3-4.9-0.5c0.1-1.4,0.3-2.7,0.4-4.1
			c0.8,0.1,1.6,0.2,2.5,0.2c0.8,0.1,1.6,0.2,2.5,0.2C70.2,35.7,70,37.1,69.9,38.5z M70.6,31.5c-1.6-0.2-3.3-0.3-4.9-0.5
			c0.1-1.4,0.3-2.7,0.4-4.1c0.8,0.1,1.6,0.2,2.5,0.2c0.8,0.1,1.6,0.2,2.5,0.2C70.9,28.7,70.7,30.1,70.6,31.5z M71.3,24.5
			c-1.6-0.2-3.3-0.3-4.9-0.5c0.1-1.4,0.3-2.7,0.4-4.1c0.8,0.1,1.6,0.2,2.5,0.2c0.8,0.1,1.6,0.2,2.5,0.2
			C71.6,21.8,71.4,23.1,71.3,24.5z M72,17.5c-1.6-0.2-3.3-0.3-4.9-0.5c0.1-1.4,0.3-2.7,0.4-4.1c0.8,0.1,1.6,0.2,2.5,0.2
			c0.8,0.1,1.6,0.2,2.5,0.2C72.2,14.8,72.1,16.1,72,17.5z"/>
		<path class="st2" d="M3.3,77.6c0.1-0.6,0.1-1.1,0.2-1.7C4.3,76,5.1,76.1,6,76.1c0.8,0.1,1.6,0.2,2.5,0.3c-0.1,0.6-0.1,1.1-0.2,1.7
			l2.8,0.3c0.5-4.6,1.1-9.1,1.6-13.7c0.2-1.5,0.7-2,2.2-1.8c8.2,1,13.3,1.9,21.5,2.9c8.2,0.9,12.3,1.9,20.5,2.8
			c1.4,0.2,1.9,0.7,1.7,2.2c-0.5,4.6-1.1,9.2-1.6,13.7l2.8,0.3c0.1-0.6,0.1-1.1,0.2-1.7c0.8,0.1,1.6,0.2,2.5,0.3
			c0.8,0.1,1.6,0.2,2.5,0.3c-0.1,0.6-0.1,1.1-0.2,1.7l2.7,0.3l8.9-76.4l-2.7-0.3c-0.1,0.7-0.2,1.3-0.2,2c-1.6-0.2-3.3-0.4-4.9-0.6
			c0.1-0.7,0.2-1.3,0.2-2l-2.8-0.3c-0.5,4.6-1.1,9.3-1.6,13.9c-0.2,1.5-0.7,2-2.2,1.8c-16.3-1.9-25.6-3.8-42-5.7
			c-1.4-0.2-1.9-0.7-1.7-2.2c0.6-4.7,1.1-9.3,1.7-14l-2.8-0.3c-0.1,0.7-0.2,1.3-0.2,2c-1.6-0.2-3.3-0.4-4.9-0.6
			c0.1-0.7,0.2-1.3,0.2-2L9.8,0.9L0.9,77.3L3.3,77.6z M65.1,80.9c-1.6-0.2-3.3-0.4-4.9-0.6c0.2-1.4,0.3-2.7,0.5-4.1
			c0.8,0.1,1.6,0.2,2.5,0.3c0.8,0.1,1.6,0.2,2.5,0.3C65.4,78.2,65.3,79.6,65.1,80.9z M65.9,73.9c-1.6-0.2-3.3-0.4-4.9-0.6
			c0.2-1.4,0.3-2.7,0.5-4.1c0.8,0.1,1.6,0.2,2.5,0.3c0.8,0.1,1.6,0.2,2.5,0.3C66.2,71.2,66.1,72.6,65.9,73.9z M66.7,67
			c-1.6-0.2-3.3-0.4-4.9-0.6c0.2-1.4,0.3-2.7,0.5-4.1c0.8,0.1,1.6,0.2,2.5,0.3c0.8,0.1,1.6,0.2,2.5,0.3C67.1,64.2,66.9,65.6,66.7,67
			z M67.6,60c-1.6-0.2-3.3-0.4-4.9-0.6c0.2-1.4,0.3-2.7,0.5-4.1c0.8,0.1,1.6,0.2,2.5,0.3c0.8,0.1,1.6,0.2,2.5,0.3
			C67.9,57.3,67.7,58.6,67.6,60z M68,13.5c0.8,0.1,1.6,0.2,2.5,0.3c0.8,0.1,1.6,0.2,2.5,0.3c-0.2,1.4-0.3,2.7-0.5,4.1
			c-1.6-0.2-3.3-0.4-4.9-0.6C67.6,16.2,67.8,14.8,68,13.5z M67.1,20.4c0.8,0.1,1.6,0.2,2.5,0.3c0.8,0.1,1.6,0.2,2.5,0.3
			c-0.2,1.4-0.3,2.7-0.5,4.1c-1.6-0.2-3.3-0.4-4.9-0.6C66.8,23.2,67,21.8,67.1,20.4z M66.3,27.4c0.8,0.1,1.6,0.2,2.5,0.3
			c0.8,0.1,1.6,0.2,2.5,0.3c-0.2,1.4-0.3,2.7-0.5,4.1c-1.6-0.2-3.3-0.4-4.9-0.6C66,30.2,66.2,28.8,66.3,27.4z M65.5,34.4
			c0.8,0.1,1.6,0.2,2.5,0.3c0.8,0.1,1.6,0.2,2.5,0.3c-0.2,1.4-0.3,2.7-0.5,4.1c-1.6-0.2-3.3-0.4-4.9-0.6
			C65.2,37.1,65.4,35.8,65.5,34.4z M64.7,41.4c0.8,0.1,1.6,0.2,2.5,0.3c0.8,0.1,1.6,0.2,2.5,0.3c-0.2,1.4-0.3,2.7-0.5,4.1
			c-1.6-0.2-3.3-0.4-4.9-0.6C64.4,44.1,64.6,42.7,64.7,41.4z M63.9,48.3c0.8,0.1,1.6,0.2,2.5,0.3c0.8,0.1,1.6,0.2,2.5,0.3
			c-0.2,1.4-0.3,2.7-0.5,4.1c-1.6-0.2-3.3-0.4-4.9-0.6C63.6,51.1,63.8,49.7,63.9,48.3z M17.4,23c0.2-1.5,0.7-2,2.2-1.8
			c8.2,1,13.3,1.9,21.5,2.9c8.2,0.9,12.3,1.9,20.5,2.8c1.4,0.2,1.9,0.7,1.7,2.2c-1.4,11.7-2.8,23.3-4.1,35c-0.2,1.5-0.7,2-2.2,1.8
			c-16.3-1.9-25.6-3.8-42-5.7c-1.4-0.2-1.9-0.7-1.7-2.2C14.8,46.3,16.1,34.6,17.4,23z M11.6,6.1c0.8,0.1,4.1,0.5,4.9,0.6
			c-0.2,1.4-0.3,2.7-0.5,4.1c-1.6-0.2-3.3-0.4-4.9-0.6C11.3,8.8,11.4,7.5,11.6,6.1z M10.8,13.1c0.8,0.1,4.1,0.5,4.9,0.6
			c-0.2,1.4-0.3,2.7-0.5,4.1c-1.6-0.2-3.3-0.4-4.9-0.6C10.5,15.8,10.6,14.4,10.8,13.1z M10,20.1c0.8,0.1,1.6,0.2,2.5,0.3
			c0.8,0.1,1.6,0.2,2.5,0.3c-0.2,1.4-0.3,2.7-0.5,4.1c-1.6-0.2-3.3-0.4-4.9-0.6C9.7,22.8,9.8,21.4,10,20.1z M9.2,27
			c0.8,0.1,1.6,0.2,2.5,0.3c0.8,0.1,1.6,0.2,2.5,0.3c-0.2,1.4-0.3,2.7-0.5,4.1c-1.6-0.2-3.3-0.4-4.9-0.6C8.8,29.8,9,28.4,9.2,27z
			 M8.4,34c0.8,0.1,1.6,0.2,2.5,0.3c0.8,0.1,1.6,0.2,2.5,0.3c-0.2,1.4-0.3,2.7-0.5,4.1c-1.6-0.2-3.3-0.4-4.9-0.6
			C8,36.7,8.2,35.4,8.4,34z M7.5,41c0.8,0.1,1.6,0.2,2.5,0.3c0.8,0.1,1.6,0.2,2.5,0.3c-0.2,1.4-0.3,2.7-0.5,4.1
			c-1.6-0.2-3.3-0.4-4.9-0.6C7.2,43.7,7.4,42.3,7.5,41z M6.7,48c0.8,0.1,1.6,0.2,2.5,0.3c0.8,0.1,1.6,0.2,2.5,0.3
			c-0.2,1.4-0.3,2.7-0.5,4.1c-1.6-0.2-3.3-0.4-4.9-0.6C6.4,50.7,6.6,49.3,6.7,48z M5.9,54.9c0.8,0.1,1.6,0.2,2.5,0.3
			c0.8,0.1,1.6,0.2,2.5,0.3c-0.2,1.4-0.3,2.7-0.5,4.1c-1.6-0.2-3.3-0.4-4.9-0.6C5.6,57.7,5.8,56.3,5.9,54.9z M5.1,61.9
			c0.8,0.1,1.6,0.2,2.5,0.3c0.8,0.1,1.6,0.2,2.5,0.3c-0.2,1.4-0.3,2.7-0.5,4.1c-1.6-0.2-3.3-0.4-4.9-0.6C4.8,64.6,5,63.3,5.1,61.9z
			 M4.3,68.9c0.8,0.1,1.6,0.2,2.5,0.3c0.8,0.1,1.6,0.2,2.5,0.3c-0.2,1.4-0.3,2.7-0.5,4.1c-1.6-0.2-3.3-0.4-4.9-0.6
			C4,71.6,4.1,70.2,4.3,68.9z"/>
		<path class="st3" d="M26.1,80.3c0.5-1.5,1.3-2.9,2.4-4c1.9-2,4.3-2.9,7.2-2.8c2.8,0.1,5.7,1.2,8.9,3.4l0.2-6.8
			c-1.9-0.9-3.5-1.6-4.8-1.9c-1.3-0.4-2.8-0.6-4.5-0.6c-4.8-0.1-8.7,1.3-11.7,4.3c-2.1,2.1-3.5,4.7-4.2,7.8L26.1,80.3z"/>
		<path class="st0" d="M27.6,80.4c0.2-0.2,0.4-0.5,0.6-0.7c1.8-2.1,4.2-3.1,7-3.2c2.8-0.1,5.8,0.9,9.1,2.9l-0.1-6.8
			c-2-0.8-3.6-1.4-4.9-1.7c-1.3-0.3-2.8-0.4-4.5-0.4c-4.8,0.1-8.6,1.7-11.5,4.9c-1.1,1.3-2,2.7-2.7,4.3L27.6,80.4z"/>
		<path class="st2" d="M26.8,80.3c0.4-0.7,0.9-1.4,1.5-2.1c1.9-2,4.2-3,7.1-3c2.8,0,5.8,1,9,3.1v-6.8c-1.9-0.9-3.6-1.5-4.9-1.8
			c-1.3-0.3-2.8-0.5-4.5-0.5c-4.8,0-8.6,1.6-11.6,4.7c-1.5,1.6-2.7,3.6-3.4,5.7L26.8,80.3z"/>
		<path class="st0" d="M45.9,14c-3.4,0.1-6.1-0.8-8.2-2.7c-1.8-1.7-2.8-3.9-3.1-6.6l-6.5-0.6c0.1,5,1.7,8.9,4.8,11.8
			c3.1,2.9,7.1,4.3,12.2,4.2c3.1-0.1,6.2-0.7,9.4-2l-0.1-6.3C51.1,13.1,48.3,13.9,45.9,14z"/>
		<path class="st2" d="M37.5,9.8c-1.4-1.4-2.3-3.1-2.8-5.2l-6.7-0.7c0.3,4.2,1.8,7.6,4.4,10.3c3,3,7,4.5,12.1,4.5
			c3.1,0,6.2-0.6,9.4-1.8v-6.3c-3.2,1.4-6,2.1-8.5,2.1C42.2,12.7,39.5,11.7,37.5,9.8z"/>
		<path class="st3" d="M37.3,7.8c-0.9-0.9-1.6-2-2-3.2l-7-0.7c0.5,3.2,1.8,5.9,3.9,8.1c2.9,3.1,6.9,4.7,12,4.9
			c3.1,0.1,6.2-0.4,9.5-1.5l0.2-6.3c-3.2,1.3-6.1,2-8.5,1.9C41.9,10.9,39.3,9.8,37.3,7.8z"/>
		<path class="st4" d="M3.2,78.1c0.1-0.7,0.2-1.5,0.3-2.2C4.3,76,5.1,76.1,6,76.1s1.6,0.2,2.5,0.3c0,0.2,0,0.3-0.1,0.5
			C8.6,77,8.8,77,9,77c0,0.2,0,0.3,0,0.5c0.2,0,0.4,0,0.6,0.1c0,0.4-0.1,0.8-0.1,1.1l1.5,0.1c0.5-4.7,1.1-9.4,1.6-14
			c0.2-1.5,0.7-2,2.2-1.8c8.2,1,13.3,1.9,21.5,2.9c0.1,0,0.2,0,0.3,0c0,0,0,0,0,0c0.1,0,0.2,0,0.3,0c0,0,0,0,0,0
			c8.2,0.7,12.4,1.4,20.6,2c1.4,0.1,1.9,0.6,1.8,2.1c-0.4,4.7-0.8,9.4-1.2,14.1l1.5,0.1c0-0.4,0.1-0.8,0.1-1.1c0.2,0,0.4,0,0.6,0.1
			c0-0.2,0-0.3,0-0.5c0.2,0,0.4,0,0.6,0.1c0-0.2,0-0.3,0-0.5c0.8,0.1,1.7,0.1,2.5,0.2c0.8,0.1,1.7,0.1,2.5,0.2
			C66.1,83.5,66,84.2,66,85l1.4,0.1l4.4-37.5l0.1-0.6l3.1-38.1l-1.4-0.1c-0.1,0.8-0.2,1.6-0.3,2.4c-1.6-0.2-3.3-0.4-4.9-0.6
			c0-0.2,0-0.3,0.1-0.5c-0.2,0-0.4,0-0.6-0.1c0-0.2,0-0.3,0-0.5c-0.2,0-0.4,0-0.6-0.1c0-0.4,0.1-0.9,0.1-1.3L65.8,8
			c-0.5,4.7-1.1,9.4-1.6,14.2c-0.2,1.5-0.7,2-2.2,1.8c-8.2-1-12.3-1.9-20.5-2.9c-0.1,0-0.3,0-0.4,0c-8.3-0.7-13.6-1.4-21.9-2
			c-1.4-0.1-1.9-0.7-1.8-2.1c0.4-4.8,0.8-9.5,1.2-14.3L17,2.5c0,0.4-0.1,0.8-0.1,1.3c-0.2,0-0.4,0-0.6-0.1c0,0.2,0,0.3-0.1,0.5
			c-0.2,0-0.4,0-0.6-0.1c0,0.2,0,0.3,0,0.5c-1.7-0.1-3.3-0.3-5-0.4c0.1-0.8,0.1-1.6,0.2-2.4L9.7,1.8L5.3,39.7l-0.1,0.6L2.1,78
			L3.2,78.1z M66.4,79.9c-0.2,0-0.4,0-0.6,0c0,0.2,0,0.4-0.1,0.6c-0.2,0-0.4,0-0.6-0.1c0,0.2,0,0.4-0.1,0.6
			c-1.6-0.2-3.3-0.4-4.9-0.6c0.2-1.4,0.3-2.7,0.5-4.1c0.2,0,0.3,0,0.5,0.1c0-0.2,0-0.3,0-0.5c0.2,0,0.3,0,0.5,0.1c0-0.2,0-0.3,0-0.5
			c0.8,0.1,1.7,0.1,2.5,0.2c0.8,0.1,1.7,0.1,2.5,0.2C66.6,77.1,66.5,78.5,66.4,79.9z M66.9,72.9c-0.1,0-0.3,0-0.4,0
			c0,0.2,0,0.4-0.1,0.6c-0.1,0-0.3,0-0.4,0c0,0.2,0,0.4-0.1,0.6c-1.6-0.2-3.3-0.4-4.9-0.6c0.2-1.4,0.3-2.7,0.5-4.1
			c0.1,0,0.3,0,0.4,0c0-0.2,0-0.3,0-0.5c0.1,0,0.3,0,0.4,0c0-0.2,0-0.3,0-0.5c0.8,0.1,1.7,0.1,2.5,0.2c0.8,0.1,1.7,0.1,2.5,0.2
			C67.2,70.1,67.1,71.5,66.9,72.9z M67.5,65.9c-0.1,0-0.2,0-0.3,0c0,0.2,0,0.4-0.1,0.6c-0.1,0-0.2,0-0.3,0c0,0.2,0,0.4-0.1,0.6
			c-1.6-0.2-3.3-0.4-4.9-0.6c0.2-1.4,0.3-2.7,0.5-4.1c0.1,0,0.2,0,0.3,0c0-0.2,0-0.3,0-0.5c0.1,0,0.2,0,0.3,0c0-0.2,0-0.3,0-0.5
			c0.8,0.1,1.7,0.1,2.5,0.2c0.8,0.1,1.7,0.1,2.5,0.2C67.7,63.1,67.6,64.5,67.5,65.9z M68.1,58.9c-0.1,0-0.1,0-0.2,0
			c0,0.2,0,0.4-0.1,0.6c-0.1,0-0.1,0-0.2,0c0,0.2,0,0.4-0.1,0.6c-1.6-0.2-3.3-0.4-4.9-0.6c0.2-1.4,0.3-2.7,0.5-4.1c0,0,0.1,0,0.1,0
			c0-0.2,0-0.3,0-0.5c0,0,0.1,0,0.1,0c0-0.2,0-0.3,0-0.5c0.8,0.1,1.7,0.1,2.5,0.2c0.8,0.1,1.7,0.1,2.5,0.2
			C68.3,56.1,68.2,57.5,68.1,58.9z M66.9,12.4c0.8,0.1,1.7,0.1,2.5,0.2c0.8,0.1,1.7,0.1,2.5,0.2c0,0.2,0,0.4,0,0.6
			c0.2,0,0.4,0,0.6,0.1c0,0.2,0,0.4-0.1,0.6c0.2,0,0.4,0,0.6,0.1c-0.2,1.4-0.3,2.7-0.5,4.1c-1.6-0.2-3.3-0.4-4.9-0.6
			c0-0.2,0-0.3,0.1-0.5c-0.2,0-0.3,0-0.5-0.1c0-0.2,0-0.3,0-0.5c-0.2,0-0.3,0-0.5,0C66.7,15.1,66.8,13.7,66.9,12.4z M66.3,19.4
			c0.8,0.1,1.7,0.1,2.5,0.2c0.8,0.1,1.7,0.1,2.5,0.2c0,0.2,0,0.4,0,0.6c0.1,0,0.3,0,0.4,0c0,0.2,0,0.4-0.1,0.6c0.1,0,0.3,0,0.4,0.1
			c-0.2,1.4-0.3,2.7-0.5,4.1c-1.6-0.2-3.3-0.4-4.9-0.6c0-0.2,0-0.3,0.1-0.5c-0.1,0-0.3,0-0.4,0c0-0.2,0-0.3,0-0.5
			c-0.1,0-0.3,0-0.4,0C66.1,22.1,66.2,20.7,66.3,19.4z M65.8,26.4c0.8,0.1,1.7,0.1,2.5,0.2c0.8,0.1,1.7,0.1,2.5,0.2
			c0,0.2,0,0.4,0,0.6c0.1,0,0.2,0,0.3,0c0,0.2,0,0.4-0.1,0.6c0.1,0,0.2,0,0.3,0c-0.2,1.4-0.3,2.7-0.5,4.1c-1.6-0.2-3.3-0.4-4.9-0.6
			c0-0.2,0-0.3,0.1-0.5c-0.1,0-0.2,0-0.3,0c0-0.2,0-0.3,0-0.5c-0.1,0-0.2,0-0.3,0C65.5,29.1,65.7,27.7,65.8,26.4z M65.2,33.4
			c0.8,0.1,1.7,0.1,2.5,0.2c0.8,0.1,1.7,0.1,2.5,0.2c0,0.2,0,0.4,0,0.6c0.1,0,0.1,0,0.2,0c0,0.2,0,0.4-0.1,0.6c0.1,0,0.1,0,0.2,0
			c-0.2,1.4-0.3,2.7-0.5,4.1c-1.6-0.2-3.3-0.4-4.9-0.6c0-0.2,0-0.3,0.1-0.5c-0.1,0-0.1,0-0.2,0c0-0.2,0-0.3,0-0.5c0,0-0.1,0-0.1,0
			C65,36.1,65.1,34.7,65.2,33.4z M64.3,45c0-0.2,0-0.3,0-0.5c0,0,0,0,0,0c0.1-1.4,0.2-2.7,0.3-4.1c0.8,0.1,1.7,0.1,2.5,0.2
			c0.8,0.1,1.7,0.1,2.5,0.2c0,0.2,0,0.4,0,0.6c0,0,0.1,0,0.1,0c0,0.2,0,0.4-0.1,0.6c0,0,0.1,0,0.1,0c-0.2,1.4-0.3,2.7-0.5,4.1
			c-1.6-0.2-3.3-0.4-4.9-0.6C64.3,45.3,64.3,45.1,64.3,45C64.3,45,64.3,45,64.3,45z M63.9,48.3C63.9,48.3,63.9,48.3,63.9,48.3
			c0-0.2,0.1-0.3,0.1-0.5c0,0,0,0,0,0c0-0.2,0-0.3,0-0.5c0.8,0.1,1.7,0.1,2.5,0.2c0.8,0.1,1.7,0.1,2.5,0.2c-0.1,1.4-0.2,2.7-0.3,4.1
			c0,0-0.1,0-0.1,0c0,0.2,0,0.4-0.1,0.6c0,0-0.1,0-0.1,0c0,0.2,0,0.4-0.1,0.6c-1.6-0.2-3.3-0.4-4.9-0.6
			C63.6,51.1,63.8,49.7,63.9,48.3z M17.5,22.2c0.1-0.1,0.2-0.3,0.3-0.4c0.3-0.5,0.9-0.7,1.8-0.6c8.1,1,13.2,1.9,21.3,2.8
			c8,0.7,12.1,1.3,20.1,2c1.1,0.1,1.6,0.4,1.8,1.2c0,0.1,0.1,0.1,0.2,0.2c0.3,0.3,0.5,0.8,0.4,1.6c-0.7,5.7-1.3,11.5-2,17.2
			c-0.5,5.6-0.9,11.3-1.4,16.9c-0.1,0.8-0.3,1.3-0.7,1.6c-0.1,0.1-0.2,0.3-0.3,0.4c-0.3,0.5-0.9,0.7-1.8,0.6c-8-0.9-12-1.9-20-2.8
			c-8.1-0.7-13.3-1.3-21.4-2c-1.1-0.1-1.6-0.4-1.8-1.2c0-0.1-0.1-0.1-0.2-0.2c-0.3-0.3-0.5-0.8-0.4-1.6c0.7-5.6,1.3-11.3,2-16.9
			c0.5-5.7,1-11.5,1.4-17.2C16.8,23,17.1,22.5,17.5,22.2z M10.3,7.2c0.1,0,0.4,0,0.6,0c0-0.2,0-0.4,0.1-0.6c0.1,0,0.4,0,0.6,0.1
			c0-0.2,0-0.4,0.1-0.6c0.8,0.1,4.1,0.5,4.9,0.6c-0.2,1.4-0.3,2.7-0.5,4.1c-0.2,0-0.3,0-0.5-0.1c0,0.2,0,0.3-0.1,0.5
			c-0.2,0-0.3,0-0.5,0c0,0.2,0,0.3,0,0.5c-1.7-0.1-3.3-0.3-5-0.4C10.1,9.9,10.2,8.5,10.3,7.2z M9.8,14.2c0.1,0,0.3,0,0.4,0
			c0-0.2,0-0.4,0.1-0.6c0.1,0,0.3,0,0.5,0c0-0.2,0-0.4,0.1-0.6c0.8,0.1,4.1,0.5,4.9,0.6c-0.2,1.4-0.3,2.7-0.5,4.1
			c-0.1,0-0.3,0-0.4,0c0,0.2,0,0.3-0.1,0.5c-0.1,0-0.3,0-0.4,0c0,0.2,0,0.3,0,0.5c-1.7-0.1-3.3-0.3-5-0.4
			C9.5,16.9,9.7,15.5,9.8,14.2z M9.2,21.2c0.1,0,0.2,0,0.3,0c0-0.2,0-0.4,0.1-0.6c0.1,0,0.2,0,0.3,0c0-0.2,0-0.4,0.1-0.6
			c0.8,0.1,1.6,0.2,2.5,0.3c0.8,0.1,1.6,0.2,2.5,0.3c-0.2,1.4-0.3,2.7-0.5,4.1c-0.1,0-0.2,0-0.3,0c0,0.2,0,0.3,0,0.5
			c-0.1,0-0.2,0-0.3,0c0,0.2,0,0.3,0,0.5c-1.7-0.1-3.3-0.3-5-0.4C9,23.9,9.1,22.5,9.2,21.2z M8.6,28.2c0.1,0,0.1,0,0.2,0
			c0-0.2,0-0.4,0.1-0.6c0.1,0,0.1,0,0.2,0c0-0.2,0-0.4,0.1-0.6c0.8,0.1,1.6,0.2,2.5,0.3c0.8,0.1,1.6,0.2,2.5,0.3
			c-0.2,1.4-0.3,2.7-0.5,4.1c-0.1,0-0.1,0-0.2,0c0,0.2,0,0.3,0,0.5c0,0-0.1,0-0.1,0c0,0.2,0,0.3,0,0.5c-1.7-0.1-3.3-0.3-5-0.4
			C8.4,30.9,8.5,29.5,8.6,28.2z M8,35.2C8.1,35.2,8.1,35.2,8,35.2c0.1-0.2,0.1-0.4,0.1-0.6c0,0,0.1,0,0.1,0c0-0.2,0-0.4,0.1-0.6
			c0.8,0.1,1.6,0.2,2.5,0.3c0.8,0.1,1.6,0.2,2.5,0.3c-0.2,1.4-0.3,2.7-0.5,4.1c0,0,0,0,0,0c0,0.2,0,0.3,0,0.5c0,0,0,0,0,0
			c0,0.2,0,0.3,0,0.5c-1.7-0.1-3.3-0.3-5-0.4C7.8,37.9,7.9,36.5,8,35.2z M7.5,41c0.8,0.1,1.6,0.2,2.5,0.3c0.8,0.1,1.6,0.2,2.5,0.3
			c0,0.2,0,0.3-0.1,0.5c0,0,0,0,0,0c0,0.2,0,0.3,0,0.5c0,0,0,0,0,0c-0.1,1.4-0.2,2.7-0.3,4.1c-1.7-0.1-3.3-0.3-5-0.4
			c0-0.2,0-0.4,0-0.6c0,0-0.1,0-0.1,0c0-0.2,0-0.4,0.1-0.6c0,0-0.1,0-0.1,0C7.2,43.7,7.4,42.3,7.5,41z M6.7,48
			c0.8,0.1,1.6,0.2,2.5,0.3c0.8,0.1,1.6,0.2,2.5,0.3c0,0.2,0,0.3-0.1,0.5c0,0,0.1,0,0.1,0c0,0.2,0,0.3,0,0.5c0,0,0.1,0,0.1,0
			c-0.1,1.4-0.2,2.7-0.3,4.1c-1.7-0.1-3.3-0.3-5-0.4c0-0.2,0-0.4,0-0.6c-0.1,0-0.1,0-0.2,0c0-0.2,0-0.4,0.1-0.6c-0.1,0-0.1,0-0.2,0
			C6.4,50.7,6.6,49.3,6.7,48z M5.9,54.9c0.8,0.1,1.6,0.2,2.5,0.3c0.8,0.1,1.6,0.2,2.5,0.3c0,0.2,0,0.3-0.1,0.5c0.1,0,0.2,0,0.3,0
			c0,0.2,0,0.3,0,0.5c0.1,0,0.2,0,0.3,0c-0.1,1.4-0.2,2.7-0.3,4.1c-1.7-0.1-3.3-0.3-5-0.4c0-0.2,0-0.4,0-0.6c-0.1,0-0.2,0-0.3,0
			c0-0.2,0-0.4,0.1-0.6c-0.1,0-0.2,0-0.3,0C5.6,57.7,5.8,56.3,5.9,54.9z M5.1,61.9c0.8,0.1,1.6,0.2,2.5,0.3c0.8,0.1,1.6,0.2,2.5,0.3
			c0,0.2,0,0.3-0.1,0.5c0.1,0,0.3,0,0.4,0c0,0.2,0,0.3,0,0.5c0.1,0,0.3,0,0.4,0c-0.1,1.4-0.2,2.7-0.3,4.1c-1.7-0.1-3.3-0.3-5-0.4
			c0-0.2,0-0.4,0-0.6c-0.1,0-0.3,0-0.4,0c0-0.2,0-0.4,0.1-0.6c-0.1,0-0.3,0-0.4-0.1C4.8,64.6,5,63.3,5.1,61.9z M4.3,68.9
			c0.8,0.1,1.6,0.2,2.5,0.3c0.8,0.1,1.6,0.2,2.5,0.3c0,0.2,0,0.3-0.1,0.5c0.2,0,0.3,0,0.5,0c0,0.2,0,0.3,0,0.5c0.2,0,0.3,0,0.5,0
			c-0.1,1.4-0.2,2.7-0.3,4.1c-1.7-0.1-3.3-0.3-5-0.4c0-0.2,0-0.4,0-0.6c-0.2,0-0.4,0-0.6-0.1c0-0.2,0-0.4,0.1-0.6
			C4.2,73,4,73,3.8,73C4,71.6,4.1,70.2,4.3,68.9z"/>
		<path class="st5" d="M37.7,11.2c-1.8-1.7-2.8-3.9-3.1-6.6l0-0.1l-6.3-0.6l0,0.1c0.5,3.2,1.8,5.9,3.9,8.1c2.9,3.1,6.9,4.7,12,4.9
			c3.1,0.1,6.2-0.4,9.5-1.5l0.1-3.5c-2.9,1.3-5.6,2-7.9,2.1C42.5,14,39.8,13.1,37.7,11.2z"/>
		<path class="st5" d="M26.1,80.3c0.5-1.5,1.3-2.9,2.4-4c1.9-2,4.3-2.9,7.2-2.8c2.6,0.1,5.4,1.1,8.4,3.1l-0.1-3.9
			c-2-0.8-3.6-1.4-4.9-1.7c-1.3-0.3-2.8-0.4-4.5-0.4c-4.8,0.1-8.6,1.7-11.5,4.9c-1.1,1.3-2,2.7-2.7,4.3l0,0.1L26.1,80.3L26.1,80.3z"
			/>
	</g>
</g>
<g id="Layer_2">
	<path class="st0" d="M181.9,52.6c1.1,0,2,0.3,2.7,1c0.8,0.7,1.2,1.6,1.2,2.6c0,1-0.3,1.9-1.1,2.7c-0.7,0.8-1.6,1.2-2.7,1.2
		c-1,0-1.9-0.3-2.6-1.1c-0.8-0.7-1.2-1.6-1.2-2.6c0-1,0.3-1.9,1.1-2.6C180.1,53,180.9,52.6,181.9,52.6z"/>
	<path class="st2" d="M182.3,53.6c1.1,0,2,0.4,2.7,1.1c0.8,0.7,1.1,1.6,1.1,2.7c0,1-0.4,1.9-1.1,2.7c-0.8,0.8-1.7,1.1-2.7,1.1
		c-1,0-1.9-0.4-2.6-1.1c-0.8-0.8-1.1-1.6-1.1-2.7c0-1,0.4-1.9,1.1-2.6C180.5,54,181.3,53.6,182.3,53.6z"/>
	<g>
		<g>
			<polygon class="st6" points="74,27.3 67.6,27.1 67.6,28.1 67.1,28.1 67.1,28.7 66.8,28.7 67.1,44 66.6,59.5 67.1,59.5 67.1,60.4 
				67.5,60.4 67.5,61.1 73.9,60.9 73.5,44.4 73.5,43.7 			"/>
			<path class="st6" d="M69.9,24.6c1.1,0,1.9-0.4,2.7-1.2c0.2-0.2,0.3-0.4,0.5-0.6c0.2-0.2,0.4-0.4,0.5-0.6c0,0,0.1,0,0.1-0.1
				c0.8-0.7,1.2-1.6,1.2-2.6c0-1.1-0.3-2-1-2.7c-0.7-0.7-1.6-1.1-2.7-1.2c-1,0-1.9,0.3-2.6,1.1c-0.3,0.2-0.4,0.5-0.6,0.8
				c-0.1,0.1-0.1,0.1-0.2,0.2c-0.2,0.2-0.4,0.4-0.5,0.6c0,0,0,0,0,0c-0.7,0.8-1.1,1.7-1.1,2.6c0,1,0.4,1.9,1.2,2.6
				C68,24.3,68.9,24.7,69.9,24.6z"/>
		</g>
		<g>
			<path class="st5" d="M67.6,27.1l6.4,0.2l-0.5,16.4v0.6l0.4,16.6l-6.4,0.1l0-0.7h-0.3v-0.9l-0.5,0L67.1,44l-0.3-15.2l0.3,0v-0.7
				h0.5L67.6,27.1 M64.7,24l0,1h-0.6v0.7l-0.4,0l0.1,3l0.3,15.1l-0.5,15.4l-0.1,3l0.6,0v1h0.4l0,0.7l3-0.1l6.4-0.1l3-0.1l-0.1-3
				l-0.4-16.5v-0.6L77,27.4l0.1-3l-3-0.1l-6.4-0.2L64.7,24L64.7,24z"/>
			<path class="st5" d="M71,15.6c0,0,0.1,0,0.1,0c1.1,0,1.9,0.4,2.7,1.2c0.7,0.7,1.1,1.6,1,2.7c0,1-0.4,1.9-1.2,2.6
				c0,0-0.1,0-0.1,0.1c-0.1,0.2-0.3,0.4-0.5,0.6c-0.1,0.2-0.3,0.4-0.5,0.6c-0.7,0.8-1.6,1.2-2.7,1.2c0,0-0.1,0-0.1,0
				c-1,0-1.8-0.4-2.5-1.1c-0.8-0.7-1.2-1.6-1.2-2.6c0-1,0.3-1.9,1.1-2.6c0,0,0,0,0,0c0.1-0.2,0.3-0.4,0.5-0.6
				c0.1-0.1,0.1-0.1,0.2-0.2c0.2-0.3,0.4-0.5,0.6-0.8C69.2,16,70.1,15.6,71,15.6 M71,12.6c-1.7,0-3.3,0.7-4.6,1.9
				c-0.3,0.3-0.6,0.6-0.8,0.9c0,0,0,0-0.1,0.1c-0.3,0.3-0.5,0.5-0.7,0.8c-1.2,1.3-1.8,2.9-1.8,4.7c0,1.8,0.8,3.4,2.1,4.7
				c1.3,1.3,2.9,1.9,4.6,1.9l0.1,0c1.8,0,3.5-0.8,4.8-2.1c0.2-0.3,0.5-0.5,0.7-0.8c0.1-0.2,0.3-0.3,0.4-0.5c1.3-1.3,2-2.9,2-4.6
				c0.1-1.9-0.6-3.6-1.9-4.9c-1.3-1.3-2.9-2-4.7-2.1C71.1,12.6,71.1,12.6,71,12.6L71,12.6z"/>
		</g>
	</g>
	<g>
		<path class="st5" d="M55.5,10l6.4,0.2l-1,33.4v1l0.4,16.7l-6.4,0.1l0-0.9h-0.3v-1.3l-0.5,0l0.5-15.2l-0.7-31.7l0.7,0v-0.9h1
			L55.5,10 M52.6,6.9l0,1.4h-1v1l-0.7,0l0.1,3l0.7,31.6L51,59l-0.1,3l0.6,0v1.4h0.4l0,1l3-0.1l6.4-0.1l3-0.1l-0.1-3l-0.4-16.7v-0.9
			l1-33.3l0.1-3l-3-0.1L55.6,7L52.6,6.9L52.6,6.9z"/>
	</g>
	<g>
		<g>
			<path class="st0" d="M49.1,53.9l0.1,6.3c-3.2,1.3-6.3,1.9-9.4,2c-5.1,0.1-9.1-1.3-12.2-4.2c-3.1-2.9-4.7-6.9-4.8-12
				c-0.1-5.1,1.3-9.2,4.1-12.4c2.9-3.2,6.7-4.8,11.5-4.9c1.7,0,3.2,0.1,4.5,0.4c1.3,0.3,3,0.8,4.9,1.7l0.1,6.8c-3.3-2-6.3-3-9.1-2.9
				c-2.9,0.1-5.2,1.1-7,3.2c-1.8,2.1-2.7,4.7-2.6,7.8c0.1,3.3,1.1,5.9,3.2,7.8c2,1.9,4.8,2.8,8.2,2.7C43.1,56.2,45.9,55.4,49.1,53.9
				z"/>
			<path class="st0" d="M53.8,12.2l6.4-0.1l1,49.1l-6.4,0.1L53.8,12.2z"/>
			<path class="st0" d="M69.7,17.1c1.1,0,2,0.3,2.7,1c0.8,0.7,1.2,1.6,1.2,2.6c0,1-0.3,1.9-1.1,2.7c-0.7,0.8-1.6,1.2-2.7,1.2
				c-1,0-1.9-0.3-2.6-1.1c-0.8-0.7-1.2-1.6-1.2-2.6c0-1,0.3-1.9,1.1-2.6C67.9,17.5,68.7,17.1,69.7,17.1z M66.8,28.7l6.4-0.1
				l0.7,32.3l-6.4,0.1L66.8,28.7z"/>
			<path class="st0" d="M80.1,77.3l-1-48.8l11.2-0.2c5.7-0.1,10.2,1.2,13.5,4c3.3,2.8,4.9,6.8,5,11.9c0.1,4.9-1.3,8.9-4.3,12
				c-2.9,3.2-6.7,4.8-11.4,4.9c-2.1,0-4.4-0.4-6.9-1.2l0.4,17.3L80.1,77.3z M90.3,34.2l-4.5,0.1l0.4,19.9c2,1,4.1,1.4,6.2,1.4
				c3-0.1,5.4-1.2,7.3-3.3c1.9-2.1,2.8-4.8,2.7-8.1c0-2.1-0.5-4-1.5-5.6c-0.9-1.6-2.2-2.7-3.8-3.5C95.6,34.5,93.3,34.2,90.3,34.2z"
				/>
			<path class="st0" d="M113.4,76.6l-1-48.8l11.2-0.2c5.7-0.1,10.2,1.2,13.5,4c3.3,2.8,4.9,6.8,5,11.9c0.1,4.9-1.3,8.9-4.3,12
				c-2.9,3.2-6.7,4.8-11.4,4.9c-2.1,0-4.4-0.4-6.9-1.2l0.4,17.3L113.4,76.6z M123.6,33.5l-4.5,0.1l0.4,19.9c2,1,4.1,1.4,6.2,1.4
				c3-0.1,5.4-1.2,7.3-3.3c1.9-2.1,2.8-4.8,2.7-8.1c0-2.1-0.5-4-1.5-5.6c-0.9-1.6-2.2-2.7-3.8-3.5C128.9,33.8,126.6,33.5,123.6,33.5
				z"/>
			<path class="st0" d="M168,9.8l6.4-0.1l1,49.1l-13.7,0.3c-4.8,0.1-8.6-1.3-11.5-4.3s-4.4-7-4.5-12.1C145.6,38,147,34,150,30.9
				c2.9-3.1,6.7-4.7,11.3-4.8c2.2,0,4.5,0.4,7.1,1.2L168,9.8z M168.9,53.5L168.5,33c-2-1-4-1.4-6.1-1.4c-3.2,0.1-5.7,1.2-7.5,3.3
				c-1.8,2.1-2.7,5-2.7,8.5c0.1,3.3,0.9,5.9,2.6,7.6c1,1.1,2.1,1.8,3.2,2.1c1.1,0.4,3.1,0.5,6,0.4L168.9,53.5z"/>
		</g>
		<g>
			<path class="st2" d="M48.9,52.9v6.3c-3.2,1.2-6.4,1.8-9.4,1.8c-5.1,0-9.1-1.5-12.1-4.5c-3-3-4.5-7-4.5-12.1
				c0-5.1,1.5-9.2,4.4-12.3c2.9-3.1,6.8-4.7,11.6-4.7c1.7,0,3.2,0.2,4.5,0.5c1.3,0.3,3,0.9,4.9,1.8v6.8c-3.2-2.1-6.2-3.1-9-3.1
				c-2.9,0-5.3,1-7.1,3c-1.9,2-2.8,4.6-2.8,7.8c0,3.3,1,5.9,3,7.9c2,1.9,4.7,2.9,8.1,2.9C42.9,55,45.7,54.3,48.9,52.9z"/>
			<path class="st2" d="M54.5,11.3h6.4v49.1h-6.4V11.3z"/>
			<path class="st2" d="M70.3,16.5c1.1,0,2,0.4,2.7,1.1c0.8,0.7,1.1,1.6,1.1,2.7c0,1-0.4,1.9-1.1,2.7c-0.8,0.8-1.7,1.1-2.7,1.1
				c-1,0-1.9-0.4-2.6-1.1c-0.8-0.8-1.1-1.6-1.1-2.7c0-1,0.4-1.9,1.1-2.6C68.4,16.8,69.3,16.5,70.3,16.5z M67.1,28.1h6.4v32.3h-6.4
				V28.1z"/>
			<path class="st2" d="M79.4,76.9V28.1h11.2c5.7,0,10.2,1.4,13.4,4.3c3.2,2.9,4.8,6.9,4.8,12c0,4.9-1.5,8.8-4.5,12
				c-3,3.1-6.8,4.7-11.5,4.7c-2.1,0-4.3-0.5-6.8-1.4v17.3H79.4z M90.5,34H86v19.9c2,1,4,1.5,6.2,1.5c3,0,5.4-1,7.3-3.1
				c1.9-2.1,2.9-4.8,2.9-8.1c0-2.1-0.5-4-1.4-5.6s-2.1-2.8-3.7-3.5C95.8,34.4,93.5,34,90.5,34z"/>
			<path class="st2" d="M112.7,76.9V28.1h11.2c5.7,0,10.2,1.4,13.4,4.3c3.2,2.9,4.8,6.9,4.8,12c0,4.9-1.5,8.8-4.5,12
				c-3,3.1-6.8,4.7-11.5,4.7c-2.1,0-4.3-0.5-6.8-1.4v17.3H112.7z M123.8,34h-4.5v19.9c2,1,4,1.5,6.2,1.5c3,0,5.4-1,7.3-3.1
				c1.9-2.1,2.9-4.8,2.9-8.1c0-2.1-0.5-4-1.4-5.6s-2.1-2.8-3.7-3.5C129.1,34.4,126.8,34,123.8,34z"/>
			<path class="st2" d="M168.7,11.3h6.4v49.1h-13.7c-4.8,0-8.6-1.5-11.4-4.5s-4.3-7.1-4.3-12.2c0-4.8,1.5-8.7,4.5-11.7
				c3-3.1,6.8-4.6,11.4-4.6c2.2,0,4.5,0.5,7,1.4V11.3z M168.7,54.9V34.4c-2-1-4-1.5-6-1.5c-3.2,0-5.7,1-7.6,3.1
				c-1.9,2.1-2.8,4.9-2.8,8.4c0,3.3,0.8,5.9,2.5,7.7c1,1.1,2,1.8,3.1,2.2c1.1,0.4,3.1,0.6,5.9,0.6H168.7z"/>
		</g>
		<g>
			<path class="st3" d="M48.7,51.4l-0.2,6.3c-3.2,1.1-6.4,1.6-9.5,1.5c-5.1-0.2-9.1-1.8-12-4.9c-2.9-3.1-4.3-7.2-4.2-12.2
				C23,37.1,24.6,33,27.6,30c3-3,6.9-4.5,11.7-4.3c1.7,0,3.2,0.3,4.5,0.6c1.3,0.4,2.9,1,4.8,1.9L48.4,35c-3.2-2.2-6.1-3.3-8.9-3.4
				c-2.9-0.1-5.3,0.9-7.2,2.8c-1.9,2-2.9,4.5-3,7.7c-0.1,3.3,0.8,6,2.8,8c1.9,2,4.6,3.1,8,3.2C42.6,53.3,45.4,52.7,48.7,51.4z"/>
			<path class="st3" d="M55.5,10l6.4,0.2l-1.5,49.1L54,59.1L55.5,10z"/>
			<path class="st3" d="M71.1,15.6c1.1,0,1.9,0.4,2.7,1.2c0.7,0.7,1.1,1.6,1,2.7c0,1-0.4,1.9-1.2,2.6c-0.8,0.7-1.7,1.1-2.7,1
				c-1,0-1.8-0.4-2.6-1.2c-0.7-0.8-1.1-1.7-1-2.7c0-1,0.4-1.8,1.2-2.6C69.3,15.9,70.1,15.6,71.1,15.6z M67.6,27.1l6.4,0.2l-1,32.3
				l-6.4-0.2L67.6,27.1z"/>
			<path class="st3" d="M78.5,76.3l1.5-48.8l11.2,0.3c5.7,0.2,10.2,1.7,13.3,4.7c3.1,3,4.6,7,4.4,12.1c-0.1,4.8-1.8,8.8-4.9,11.8
				c-3.1,3-7,4.5-11.6,4.3c-2.1-0.1-4.3-0.6-6.8-1.6L85,76.5L78.5,76.3z M90.8,33.8l-4.5-0.1l-0.6,19.9c1.9,1.1,4,1.6,6.1,1.7
				c3,0.1,5.5-0.9,7.4-2.9c2-2,3-4.7,3.1-8c0.1-2.1-0.3-4-1.2-5.6c-0.9-1.6-2-2.9-3.6-3.6C96.1,34.3,93.8,33.9,90.8,33.8z"/>
			<path class="st3" d="M111.8,77.3l1.5-48.8l11.2,0.3c5.7,0.2,10.2,1.7,13.3,4.7c3.1,3,4.6,7,4.4,12.1c-0.1,4.8-1.8,8.8-4.9,11.8
				c-3.1,3-7,4.5-11.6,4.3c-2.1-0.1-4.3-0.6-6.8-1.6l-0.5,17.3L111.8,77.3z M124.1,34.8l-4.5-0.1L119,54.5c1.9,1.1,4,1.6,6.1,1.7
				c3,0.1,5.5-0.9,7.4-2.9c2-2,3-4.7,3.1-8c0.1-2.1-0.3-4-1.2-5.6c-0.9-1.6-2-2.9-3.6-3.6C129.3,35.3,127.1,34.9,124.1,34.8z"/>
			<path class="st3" d="M169.6,13.4l6.4,0.2l-1.5,49.1l-13.7-0.4c-4.8-0.1-8.5-1.8-11.3-4.9c-2.8-3.1-4.1-7.2-3.9-12.3
				c0.1-4.8,1.8-8.6,4.8-11.6c3.1-3,6.9-4.4,11.6-4.3c2.2,0.1,4.5,0.6,7,1.6L169.6,13.4z M168.3,57l0.6-20.5c-2-1.1-4-1.6-6-1.7
				c-3.2-0.1-5.8,0.9-7.7,2.9c-1.9,2-3,4.8-3.1,8.3c-0.1,3.3,0.6,5.9,2.2,7.8c1,1.1,2,1.9,3.1,2.3c1.1,0.4,3.1,0.7,5.9,0.7L168.3,57
				z"/>
		</g>
		<path class="st5" d="M39,59.2c3.1,0.1,6.2-0.4,9.5-1.5l0.1-3.5c-2.9,1.3-5.6,2-7.9,2.1c-3.4,0.1-6.1-0.8-8.2-2.7
			c-2-1.9-3.1-4.5-3.2-7.8c0-0.2,0-0.5,0-0.7c0-0.3,0-0.5,0-0.8c0-0.3,0-0.7,0-1c0-0.4,0-0.7,0-1.1c0.1-3.1,1.1-5.7,3-7.7
			c1.9-2,4.3-2.9,7.2-2.8c2.6,0.1,5.4,1.1,8.4,3.1l-0.1-3.9c-2-0.8-3.6-1.4-4.9-1.7c-1.3-0.3-2.8-0.4-4.5-0.4
			c-4.8,0.1-8.6,1.7-11.5,4.9c-2.5,2.8-3.9,6.3-4.1,10.5c0.2,4.1,1.6,7.5,4.1,10.2C30,57.4,33.9,59,39,59.2z"/>
		<polygon class="st5" points="60.9,43.9 60.2,12.1 55.4,12.2 54.5,43.4 54.5,44.6 54.8,59.1 60.4,59.3 		"/>
		<g>
			<polygon class="st5" points="73.5,44 73.2,28.6 67.6,28.7 67.1,43.6 67.1,44.4 67.4,59.5 73,59.6 			"/>
			<path class="st5" d="M68.3,22c0.7,0.8,1.6,1.2,2.6,1.2c0.9,0,1.7-0.2,2.4-0.7c0.3-0.5,0.4-1.1,0.4-1.7c0-1.1-0.4-1.9-1.2-2.6
				c-0.8-0.7-1.7-1.1-2.7-1c-0.8,0-1.4,0.3-2.1,0.7c-0.2,0.5-0.4,0.9-0.4,1.5C67.2,20.3,67.6,21.2,68.3,22z"/>
		</g>
		<path class="st5" d="M85.5,59.2c2.5,1,4.7,1.5,6.8,1.6c4.7,0.1,8.5-1.3,11.6-4.3c3.1-3,4.7-7,4.9-11.8c0-0.3,0-0.5,0-0.8
			c0-0.1,0-0.2,0-0.2c-0.2-4.9-1.9-8.7-5-11.3c-3.3-2.8-7.7-4.1-13.5-4l-10.4,0.2l-0.5,15.3v0.5l0.7,32l4.9,0.1L85.5,59.2z
			 M85.8,34.3l0.2,0V34h0.3l0-0.4l4.5,0.1c3,0.1,5.3,0.5,6.8,1.3c1.5,0.8,2.7,2,3.6,3.6c0.8,1.5,1.2,3.3,1.2,5.2c0,0.1,0,0.2,0,0.3
			c0.1,3.3-0.8,6-2.7,8.1c-1.9,2.1-4.3,3.2-7.3,3.3c-2.2,0-4.2-0.4-6.2-1.4l0-0.2c-0.1,0-0.1-0.1-0.2-0.1v-0.3
			c-0.1,0-0.2-0.1-0.3-0.1L86,44L85.8,34.3z"/>
		<path class="st5" d="M126.5,60.4c4.7-0.1,8.5-1.7,11.4-4.9c2.6-2.8,4-6.3,4.2-10.5c0-4.8-1.5-8.7-4.4-11.5
			c-3.1-3-7.5-4.5-13.3-4.7l-11.2-0.3l-0.5,15.7l0.7,32.4l4.9-0.1l0.5-16.3c0.2,0.1,0.3,0.1,0.5,0.2v-0.8c0.1,0,0.2,0.1,0.3,0.1
			l0-0.5C122.1,60,124.4,60.4,126.5,60.4z M119,54.5l0.3-10.1v-0.5l-0.2-10.3l4.5-0.1c3-0.1,5.3,0.3,6.8,1c1.6,0.7,2.8,1.9,3.8,3.5
			c0.9,1.6,1.4,3.5,1.5,5.6c0,0.2,0,0.4,0,0.5c0,0.1,0,0.2,0,0.2c0,0.3,0,0.5,0,0.8c0,0.1,0,0.2,0,0.3c-0.1,3.3-1.1,5.9-3.1,8
			c-2,2-4.4,3-7.4,2.9C123,56.2,120.9,55.6,119,54.5z"/>
		<path class="st5" d="M174.5,13.5l-4.9-0.1l-0.5,17.4c-2.5-1-4.8-1.5-7-1.6c-4.6-0.1-8.5,1.3-11.6,4.3c-2.9,2.8-4.4,6.3-4.8,10.6
			c0.3,4.4,1.8,8,4.4,10.7c2.9,3,6.8,4.4,11.5,4.3l12.9-0.3l0.4-13.6v-1.9L174.5,13.5z M168.9,53.5l-0.2,0v1.5h-0.3l-0.1,2.1l-5-0.1
			c-2.9-0.1-4.8-0.3-5.9-0.7c-1.1-0.4-2.1-1.2-3.1-2.3c-1.6-1.9-2.3-4.4-2.2-7.8c0-0.3,0-0.6,0.1-0.9c0-0.2,0-0.5,0-0.7
			c0-0.2,0-0.4,0-0.6c0-0.2,0-0.3,0-0.5c-0.1-3.5,0.8-6.4,2.7-8.5c1.8-2.1,4.4-3.2,7.5-3.3c2,0,4.1,0.4,6.1,1.4l0,1.4
			c0.1,0,0.1,0.1,0.2,0.1v2c0.1,0,0.2,0.1,0.3,0.1l-0.2,7.9L168.9,53.5z"/>
	</g>
	<path class="st3" d="M182.7,55.1c1.1,0,1.9,0.4,2.7,1.2c0.7,0.7,1.1,1.6,1,2.7c0,1-0.4,1.9-1.2,2.6c-0.8,0.7-1.7,1.1-2.7,1
		c-1,0-1.8-0.4-2.6-1.2c-0.7-0.8-1.1-1.7-1-2.7c0-1,0.4-1.8,1.2-2.6C180.8,55.4,181.7,55.1,182.7,55.1z"/>
	<path class="st5" d="M180,56.2c-0.7,0.6-1,1.4-1.1,2.2c0.2,0.3,0.4,0.5,0.6,0.7c0.8,0.7,1.6,1.1,2.6,1.1c1.1,0,1.9-0.4,2.7-1.2
		c0.6-0.6,0.9-1.3,1-2.1c-0.1-0.2-0.3-0.4-0.5-0.6c-0.7-0.7-1.6-1.1-2.7-1.2C181.7,55.1,180.8,55.4,180,56.2z"/>
</g>
</svg>
