<?xml version="1.0" encoding="utf-8"?>
<!-- Generator: Adobe Illustrator 27.3.0, SVG Export Plug-In . SVG Version: 6.00 Build 0)  -->
<svg version="1.1" id="Layer_1" xmlns="http://www.w3.org/2000/svg" xmlns:xlink="http://www.w3.org/1999/xlink" x="0px" y="0px"
	 viewBox="0 0 90 15" style="enable-background:new 0 0 90 15;" xml:space="preserve">
<style type="text/css">
	.st0{fill:#FFFFFF;}
	.st1{fill:none;stroke:#FFFFFF;stroke-width:0.962;stroke-miterlimit:10;}
</style>
<g>
	<path class="st0" d="M62.4,1c0.4,0,0.7,0.1,1,0.4l5.2,5.2c0.3,0.3,0.4,0.6,0.4,1s-0.1,0.7-0.4,1l-5.2,5.2c-0.3,0.3-0.6,0.4-1,0.4
		s-0.7-0.1-1-0.4l-5.2-5.2c-0.3-0.3-0.4-0.6-0.4-1s0.1-0.7,0.4-1l5.2-5.2C61.7,1.1,62,1,62.4,1 M62.4,0c-0.6,0-1.2,0.2-1.6,0.7
		l-5.2,5.2c-0.9,0.9-0.9,2.4,0,3.3l5.2,5.2c0.5,0.5,1.1,0.7,1.6,0.7s1.2-0.2,1.6-0.7l5.2-5.2c0.9-0.9,0.9-2.4,0-3.3L64,0.7
		C63.6,0.2,63,0,62.4,0L62.4,0z"/>
</g>
<g>
	<path class="st0" d="M63.2,6.8h2.3v1.3h-2.3v2.3h-1.3V8.1h-2.3V6.8h2.3V4.5h1.3V6.8z"/>
</g>
<line class="st1" x1="55.2" y1="7.5" x2="0.1" y2="7.5"/>
</svg>
