<?xml version="1.0" encoding="utf-8"?>
<!-- Generator: Adobe Illustrator 27.3.0, SVG Export Plug-In . SVG Version: 6.00 Build 0)  -->
<svg version="1.1" id="Layer_1" xmlns="http://www.w3.org/2000/svg" xmlns:xlink="http://www.w3.org/1999/xlink" x="0px" y="0px"
	 viewBox="0 0 50 25" style="enable-background:new 0 0 50 25;" xml:space="preserve">
<style type="text/css">
	.st0{fill:#ABABAB;}
</style>
<path class="st0" d="M17,12c7.7-0.1,7.8-11.9-0.1-12C8.7,0.2,9.2,12.1,17,12z"/>
<path class="st0" d="M33.2,12c7.6,0,8.1-11.7,0.1-12C25.4,0,25.3,11.9,33.2,12z"/>
<path class="st0" d="M49.7,7.1c-0.8-0.5-2.2-3.1-3.4-1.9c-1.3,1.2-6.9,7.1-8.1,8.2c-3,2.5-8,2.4-10.5-0.6c-2.8-4-3.3-1.4-6.1,0.8
	c-2.7,2.1-6.7,2.1-9.4,0c-2.3-2-4.4-4.4-6.6-6.5C5.2,6.7,4.9,6.2,4.4,5.9C3.9,5.4,3,4.3,2.2,5.2C1.7,5.9-0.9,7.4,0.3,8.5
	c0,0,6.6,6.6,6.6,6.6c1.4,1.4,3.5,2.7,3.5,4.9c0,1.7,0,3.3,0,5h13c-0.1-1.9,0-3.8,0.3-5.6c0.9-1.3,3-0.6,3,1c0,1.4,0,3,0,4.6h13.1
	c0-1.7,0-3.4,0-4.9c0-1.1,0.4-2,1.2-2.8c2.2-2.2,4.4-4.4,6.6-6.6c0.5-0.5,1-0.9,1.4-1.4C49.4,8.8,50.5,7.9,49.7,7.1z"/>
</svg>
