<?xml version="1.0" encoding="utf-8"?>
<!-- Generator: Adobe Illustrator 27.3.0, SVG Export Plug-In . SVG Version: 6.00 Build 0)  -->
<svg version="1.1" id="Layer_1" xmlns="http://www.w3.org/2000/svg" xmlns:xlink="http://www.w3.org/1999/xlink" x="0px" y="0px"
	 viewBox="0 0 50 50" style="enable-background:new 0 0 50 50;" xml:space="preserve">
<style type="text/css">
	.st0{fill:#ED1C24;}
	.st1{fill:#FFFFFF;}
</style>
<path class="st0" d="M21.1,49.1L1,29c-2-2-2-5.3,0-7.3L21.1,1.5c2-2,5.3-2,7.3,0l20.1,20.1c2,2,2,5.3,0,7.3L28.4,49.1
	C26.4,51.1,23.1,51.1,21.1,49.1z"/>
<path class="st1" d="M25.5,31.1h0.5c2.1,0,3.2,1.3,3.2,4c0,1-0.2,1.7-0.5,2.1c-0.3,0.4-1,0.5-1.9,0.5h-0.6c0.3-0.9,0.5-1.8,0.5-2.5
	C26.7,33.9,26.3,32.5,25.5,31.1z M26.2,11.8h0.7c0.9,0,1.4,0.2,1.8,0.6c0.3,0.4,0.5,1,0.5,2c0,2.7-1,4.1-3,4.1h-0.6
	c0.7-1.3,1.1-2.7,1.1-4.2C26.5,13.4,26.4,12.6,26.2,11.8z M21.3,13.3c1.1-1.5,2.7-1.3,4.3-1.5c0.2,0.8,0.3,1.6,0.3,2.4
	c0,1.3-0.4,2.8-1.1,4.2h-0.3c-1.4,0-2.1,2.1-2.1,6.2c0,4.3,0.7,6.4,2.1,6.4h0.3c0.8,1.4,1.2,2.8,1.2,4.2c0,0.8-0.2,1.7-0.5,2.5
	c-1.5-0.2-3-0.3-4.2-1.5c-1.3-1.3-1.1-3.6-1.5-5.5c-0.3-1.9-0.5-3.9-0.5-6c0-2.1,0.2-4.1,0.5-6C20.1,16.9,20.1,14.9,21.3,13.3z"/>
</svg>
