<?xml version="1.0" encoding="utf-8"?>
<!-- Generator: Adobe Illustrator 27.3.0, SVG Export Plug-In . SVG Version: 6.00 Build 0)  -->
<svg version="1.1" id="Layer_1" xmlns="http://www.w3.org/2000/svg" xmlns:xlink="http://www.w3.org/1999/xlink" x="0px" y="0px"
	 viewBox="0 0 25 25" style="enable-background:new 0 0 25 25;" xml:space="preserve">
<style type="text/css">
	.st0{fill:#00AEEF;}
	.st1{fill:#262262;}
</style>
<rect class="st0" width="25" height="25"/>
<g>
	<path class="st1" d="M6.6,17.3L4.2,9.4H4.1c0,0.2,0,0.5,0,0.8s0,0.8,0.1,1.2s0,0.8,0,1.1v4.6H2.4v-10h2.9l2.4,7.6h0l2.5-7.6h2.9v10
		h-2v-4.7c0-0.3,0-0.7,0-1.1s0-0.8,0-1.2c0-0.4,0-0.7,0-0.8h-0.1l-2.6,7.8H6.6z"/>
	<path class="st1" d="M19.8,8.9c-0.4,0-0.8,0.1-1.1,0.2c-0.3,0.2-0.6,0.4-0.8,0.7c-0.2,0.3-0.4,0.7-0.5,1.1s-0.2,0.9-0.2,1.4
		c0,0.7,0.1,1.3,0.3,1.8c0.2,0.5,0.4,0.9,0.8,1.1c0.4,0.3,0.8,0.4,1.4,0.4c0.4,0,0.8,0,1.2-0.1c0.4-0.1,0.9-0.2,1.3-0.4v1.8
		c-0.4,0.2-0.9,0.3-1.3,0.4c-0.4,0.1-0.9,0.1-1.4,0.1c-1,0-1.9-0.2-2.5-0.6c-0.7-0.4-1.2-1-1.5-1.8c-0.3-0.8-0.5-1.7-0.5-2.7
		c0-0.8,0.1-1.4,0.3-2.1s0.5-1.2,0.9-1.6s0.9-0.8,1.5-1.1s1.3-0.4,2-0.4c0.5,0,1,0.1,1.5,0.2c0.5,0.1,1,0.3,1.4,0.5l-0.7,1.7
		c-0.4-0.2-0.8-0.3-1.1-0.5S20.2,8.9,19.8,8.9z"/>
</g>
</svg>
