<?xml version="1.0" encoding="utf-8"?>
<!-- Generator: Adobe Illustrator 27.3.0, SVG Export Plug-In . SVG Version: 6.00 Build 0)  -->
<svg version="1.1" id="Layer_1" xmlns="http://www.w3.org/2000/svg" xmlns:xlink="http://www.w3.org/1999/xlink" x="0px" y="0px"
	 viewBox="0 0 25 25" style="enable-background:new 0 0 25 25;" xml:space="preserve">
<style type="text/css">
	.st0{fill:none;stroke:#808285;stroke-width:0.25;stroke-miterlimit:10;}
	.st1{opacity:0.25;fill:#FFFFFF;}
	.st2{fill:#808285;}
</style>
<polyline class="st0" points="5.1,10.8 10.3,10 13.2,5.7 "/>
<polygon class="st1" points="25.1,19.9 12.3,12.1 12.3,9.4 25.1,1.7 "/>
<g id="Ribbon">
</g>
<polygon points="14.2,14.9 6.4,12.6 6.4,8.4 14.2,7.1 "/>
<path class="st2" d="M11.3,2C10,2,8.9,3,8.9,4.4s1.1,2.4,2.4,2.4s2.4-1.1,2.4-2.4S12.7,2,11.3,2z M11.3,5.5c-0.6,0-1.2-0.5-1.2-1.2
	s0.5-1.2,1.2-1.2s1.2,0.5,1.2,1.2S12,5.5,11.3,5.5z"/>
<path d="M11.3,8.8c0.6,0,1.1-0.1,1.6-0.3c0,0,0.1,0,0.1,0c0.4-0.2,0.7-0.4,1-0.6c1.2-1,1.9-2.7,1.6-4.2c-0.5-2.4-2.6-3.9-5-3.6
	c-0.5,0.1-1,0.2-1.4,0.5c0,0,0,0,0,0c0,0,0,0,0,0C7.8,1.3,6.9,2.7,6.9,4.4C6.9,6.8,8.9,8.8,11.3,8.8z M10.7,5.8
	c-0.1,0.3-0.1,0.6-0.2,1c-0.1,0.4-0.3,0.6-0.7,0.6c-0.1,0-0.2,0-0.3-0.1C9.1,7,8.7,6.6,8.4,6.1c-0.2-0.4-0.1-0.9,0.4-1
	C9.1,5.1,9.5,5,9.8,5c0.1,0,0.2,0,0.2,0.1c0.1,0.2,0.3,0.4,0.5,0.5C10.7,5.7,10.7,5.7,10.7,5.8z M10.8,4.4c0-0.3,0.2-0.5,0.5-0.5
	c0.3,0,0.5,0.2,0.5,0.5c0,0.3-0.2,0.5-0.5,0.5C11,4.9,10.8,4.7,10.8,4.4z M13.9,6.6c-0.5,0.6-1.2,1-2,1.1c-0.4,0.1-0.6-0.3-0.6-0.8
	c0-0.3,0.1-0.6,0.2-1c0-0.1,0.1-0.1,0.2-0.2c0.3-0.1,0.5-0.2,0.7-0.4c0.1-0.1,0.1-0.1,0.2,0c0.4,0.2,0.7,0.4,1.1,0.6
	c0.1,0.1,0.2,0.2,0.3,0.3C14,6.3,14,6.5,13.9,6.6z M14.5,3.1c0.1,0.4,0.2,0.8,0.2,1.2c0,0.1,0,0.2,0,0.3c0,0.4-0.4,0.7-0.8,0.6
	c-0.4-0.1-0.7-0.4-1.1-0.5c-0.1,0-0.1-0.1-0.1-0.2c0-0.3,0-0.5-0.1-0.8c0-0.1,0-0.2,0.1-0.2c0.2-0.2,0.5-0.4,0.7-0.7
	C13.7,2.6,14.3,2.5,14.5,3.1z M11.1,1c0.1,0,0.1,0,0.2,0c0.5,0,0.9,0.1,1.3,0.3c0.5,0.2,0.6,0.7,0.2,1c-0.2,0.3-0.5,0.5-0.8,0.8
	c-0.1,0.1-0.1,0.1-0.2,0c-0.2-0.1-0.5-0.2-0.8-0.1c-0.1,0-0.1,0-0.2-0.1c-0.1-0.3-0.3-0.6-0.4-0.8C10.3,1.4,10.5,1,11.1,1z M8,3.6
	c0.2-0.7,0.5-1.3,1.1-1.8c0.1-0.1,0.3-0.1,0.4,0c0.2,0.1,0.3,0.3,0.4,0.5c0.2,0.3,0.3,0.6,0.4,0.9c0.1,0.1,0,0.2,0,0.3
	c-0.2,0.2-0.3,0.4-0.3,0.6c0,0.1,0,0.1-0.1,0.1C9.4,4.3,9,4.3,8.7,4.4C8.2,4.4,7.9,4,8,3.6z"/>
<path class="st2" d="M4.8,7.4c-1,0-1.7,0.8-1.7,1.7c0,1,0.8,1.7,1.7,1.7s1.7-0.8,1.7-1.7C6.6,8.2,5.8,7.4,4.8,7.4z M4.8,9.7
	c-0.3,0-0.6-0.3-0.6-0.6c0-0.3,0.3-0.6,0.6-0.6c0.3,0,0.6,0.3,0.6,0.6C5.4,9.5,5.2,9.7,4.8,9.7z"/>
<path d="M4.8,12.4c0.4,0,0.8-0.1,1.2-0.2c0,0,0,0,0.1,0c0.3-0.1,0.5-0.3,0.8-0.5c0.9-0.7,1.4-2,1.2-3.2C7.7,6.8,6.1,5.6,4.3,5.9
	C3.9,5.9,3.6,6.1,3.2,6.2c0,0,0,0,0,0c0,0,0,0,0,0c-1,0.6-1.6,1.6-1.6,2.9C1.5,10.9,3,12.4,4.8,12.4z M4.4,10.2
	c0,0.2-0.1,0.5-0.1,0.7c0,0.3-0.2,0.4-0.5,0.4c-0.1,0-0.2,0-0.2-0.1c-0.4-0.2-0.7-0.5-0.9-0.9c-0.2-0.3,0-0.6,0.3-0.7
	c0.3-0.1,0.5-0.1,0.8-0.1c0.1,0,0.1,0,0.2,0.1C4,9.8,4.1,10,4.3,10.1C4.4,10.1,4.4,10.2,4.4,10.2z M4.4,9.1c0-0.2,0.2-0.4,0.4-0.4
	c0.2,0,0.4,0.2,0.4,0.4c0,0.2-0.2,0.4-0.4,0.4C4.6,9.5,4.5,9.4,4.4,9.1z M6.8,10.8c-0.4,0.5-0.9,0.7-1.5,0.8c-0.3,0-0.5-0.2-0.5-0.6
	c0-0.2,0.1-0.5,0.1-0.7c0-0.1,0.1-0.1,0.1-0.1c0.2,0,0.4-0.1,0.5-0.3c0,0,0.1,0,0.1,0C6,10,6.2,10.2,6.5,10.3c0.1,0,0.2,0.1,0.2,0.2
	C6.8,10.6,6.8,10.7,6.8,10.8z M7.2,8.2c0.1,0.3,0.2,0.6,0.2,0.9c0,0.1,0,0.2,0,0.2c0,0.3-0.3,0.5-0.6,0.4C6.5,9.7,6.2,9.5,5.9,9.4
	c-0.1,0-0.1-0.1-0.1-0.1c0-0.2,0-0.4-0.1-0.6c0-0.1,0-0.1,0-0.2C6,8.3,6.2,8.2,6.3,8C6.6,7.8,7,7.7,7.2,8.2z M4.7,6.6
	c0,0,0.1,0,0.1,0c0.3,0,0.7,0.1,1,0.2C6.1,6.9,6.2,7.3,6,7.6C5.8,7.8,5.6,7.9,5.4,8.1c0,0-0.1,0.1-0.2,0C5.1,8.1,4.9,8,4.7,8.1
	C4.6,8.1,4.6,8,4.5,8C4.4,7.8,4.3,7.6,4.2,7.4C4,6.9,4.2,6.6,4.7,6.6z M2.3,8.5c0.1-0.5,0.4-1,0.8-1.3c0.1-0.1,0.2-0.1,0.3,0
	c0.1,0.1,0.2,0.2,0.3,0.4C3.8,7.8,3.9,8,4,8.2c0,0.1,0,0.1,0,0.2C3.9,8.6,3.8,8.7,3.8,8.9C3.7,9,3.7,9,3.7,9c-0.3,0-0.6,0.1-0.8,0.1
	C2.5,9.2,2.3,8.9,2.3,8.5z"/>
</svg>
