<?xml version="1.0" encoding="utf-8"?>
<!-- Generator: Adobe Illustrator 27.3.0, SVG Export Plug-In . SVG Version: 6.00 Build 0)  -->
<svg version="1.1" id="Layer_1" xmlns="http://www.w3.org/2000/svg" xmlns:xlink="http://www.w3.org/1999/xlink" x="0px" y="0px"
	 viewBox="0 0 50 50" style="enable-background:new 0 0 50 50;" xml:space="preserve">
<style type="text/css">
	.st0{fill:url(#SVGID_1_);}
	.st1{fill:#FBB040;}
</style>
<g id="raQBQw_00000093880443310175801030000014990312053250923401_">
	<g>
		<g>
			
				<linearGradient id="SVGID_1_" gradientUnits="userSpaceOnUse" x1="7.714" y1="48.0716" x2="36.6534" y2="6.7418" gradientTransform="matrix(0.9852 1.211838e-03 -0.1802 1.0148 4.8884 -0.4008)">
				<stop  offset="7.519068e-02" style="stop-color:#EC008C"/>
				<stop  offset="0.1637" style="stop-color:#ED1B89"/>
				<stop  offset="0.3086" style="stop-color:#EE3E87"/>
				<stop  offset="0.492" style="stop-color:#F06080"/>
				<stop  offset="0.7066" style="stop-color:#F48271"/>
				<stop  offset="0.945" style="stop-color:#FAA74E"/>
				<stop  offset="1" style="stop-color:#FBB040"/>
			</linearGradient>
			<path class="st0" d="M7.5,49.1c-1.8,0-3.3-0.5-4.5-1.4c-2.4-2-2.6-5.3-0.5-8.3c1.8-2.5,4.4-4.2,7.6-4.9c0.7-0.2,1.4-0.2,2.1-0.2
				c1.1,0,2.1,0.2,3.1,0.6c0-0.1,5.6-31.5,5.6-31.5C21.2,2,22.1,1,23.5,0.8c0.1,0,0.2,0,0.3,0c0.5,0,0.9,0.2,1.4,0.5
				c0.7,0.5,1.3,1,1.7,1.5c0.8,1.1,2,1.7,3.6,1.9c0.7,0.1,1.3,0.2,2,0.2c1,0.1,1.9,0.2,2.8,0.4c3.5,0.6,6.2,1.8,8.2,3.7
				c3.1,2.2,4.8,8.5,4.7,12c0,0.4-0.1,0.8-0.2,1.3c0,0.2-0.2,1-1,1.1l-0.1,0c-0.2,0-0.9-0.1-0.9-1.1c0-0.6,0-1.4-0.2-2.1
				c-0.6-3.7-4.2-8.9-7.7-9.9c-1.5-0.5-3.2-0.7-5.1-0.7c0,0-1.3,0-1.7,0c-1.1,0-2.4,0-3.6-0.3c-1.3-0.2-2.4-0.6-3.3-1.2
				c-0.1,0.6-0.2,1.2-0.3,1.9c0,0,0,0.1,0.1,0.2c1,1.3,2.3,1.9,4.3,2.1c2.2,0.2,4.8,0.5,7.1,1.6c4.9,2.3,6.6,7.5,6.6,11.5
				c0,0.5,0,1-0.1,1.5l0,0.1c0,0.3-0.2,1-0.9,1c0,0,0,0,0,0c-0.4,0-0.5-0.1-0.6-0.2c-0.3-0.3-0.3-0.6-0.2-0.8c0-0.8-0.1-1.5-0.3-2.2
				c-0.8-3.1-2.8-7-6-7.8c-1.8-0.6-3.6-0.6-5.2-0.6l-0.9,0c-1.6,0-3.2-0.1-4.7-0.8l-3,16.9c-0.1,0.8-0.3,1.6-0.4,2.4
				c-0.3,1.8-0.7,3.6-1,5.5c-0.4,2.6-1.8,4.8-4.3,6.5c-2.1,1.5-4.3,2.2-6.7,2.3L7.5,49.1z"/>
			<path class="st1" d="M23.8,1.3c0.4,0,0.8,0.1,1.1,0.4c0.6,0.4,1.1,0.9,1.6,1.4c1,1.2,2.3,1.9,3.9,2.1c1.6,0.2,3.2,0.4,4.8,0.6
				c3.1,0.5,5.8,1.5,8,3.6c2.9,2.1,4.7,8.1,4.5,11.6c0,0.4-0.1,0.9-0.1,1.3c-0.1,0.3-0.2,0.6-0.6,0.7c0,0,0,0-0.1,0
				c-0.3,0-0.4-0.3-0.4-0.6c0-0.7-0.1-1.5-0.2-2.2c-0.7-3.9-4.4-9.3-8-10.3c-1.7-0.5-3.5-0.7-5.3-0.7c-0.1,0-0.2,0-0.3,0
				c-0.5,0-0.9,0-1.4,0c-1.2,0-2.4,0-3.5-0.2c-1.3-0.2-2.4-0.6-3.4-1.3c-0.1-0.1-0.2-0.1-0.2-0.1c-0.1,0-0.1,0.1-0.2,0.3
				c-0.1,0.7-0.3,1.5-0.4,2.2c0,0.3,0.1,0.4,0.2,0.6c1.1,1.5,2.7,2.1,4.7,2.2c2.4,0.2,4.8,0.5,6.9,1.6c4.7,2.2,6.3,7.2,6.3,11.1
				c0,0.5,0,0.9-0.1,1.4c-0.1,0.3,0,0.7-0.5,0.7c0,0,0,0,0,0c-0.4,0-0.3-0.4-0.3-0.6c0-0.8-0.1-1.5-0.3-2.3
				c-0.7-2.7-2.7-7.3-6.4-8.2c-1.7-0.5-3.5-0.7-5.3-0.7c-0.2,0-0.3,0-0.5,0c-0.1,0-0.3,0-0.4,0c-1.6,0-3.2-0.1-4.6-0.8
				C23,15,22.9,15,22.8,15c-0.1,0-0.2,0.1-0.2,0.5c-1.1,6.3-1.9,10.6-3,17c-0.5,2.6-1,5.2-1.4,7.8c-0.4,2.6-1.9,4.6-4.1,6.2
				c-2,1.4-4.2,2.1-6.4,2.2c-0.1,0-0.1,0-0.2,0c-1.6,0-3-0.4-4.1-1.3c-2.2-1.8-2.4-4.8-0.4-7.6c1.9-2.6,4.4-4,7.3-4.7
				c0.7-0.1,1.3-0.2,2-0.2c1.1,0,2.2,0.2,3.2,0.7c0.1,0,0.1,0.1,0.2,0.1c0.1,0,0.2-0.1,0.2-0.3c0.1-0.3,0.1-0.6,0.2-1
				c1-5.4,1.5-8.7,2.5-14.1c1-5.6,2-11.1,3-16.7c0.2-1.3,1-2.1,2.2-2.2C23.7,1.3,23.7,1.3,23.8,1.3 M23.8,0.3L23.8,0.3
				c-0.1,0-0.2,0-0.3,0c-1.6,0.2-2.8,1.3-3.1,3c-0.7,4.1-1.5,8.2-2.2,12.3l-0.8,4.4l-2.5,14.1l0,0.1c-0.9-0.3-1.8-0.4-2.7-0.4
				c-0.7,0-1.4,0.1-2.2,0.2c-3.3,0.7-6,2.4-7.9,5.1c-2.3,3.2-2,6.9,0.6,9c1.3,1,2.9,1.5,4.8,1.5l0.2,0c2.5,0,4.8-0.8,7-2.4
				c2.6-1.8,4.1-4.1,4.5-6.9c0.3-1.8,0.6-3.7,1-5.5c0.1-0.8,0.3-1.6,0.4-2.4l2.9-16.3c1.4,0.5,2.9,0.6,4.3,0.6l0.5,0l0.5,0
				c1.5,0,3.3,0.1,5,0.6l0,0l0,0c3.2,0.8,5,5,5.6,7.4c0.2,0.7,0.3,1.4,0.3,2l0,0.1c0,0.3,0,0.8,0.4,1.2c0.2,0.2,0.6,0.4,0.9,0.4h0
				l0.1,0c0.5,0,1.2-0.3,1.4-1.4l0-0.1c0.1-0.6,0.1-1.1,0.1-1.6c0-4.2-1.8-9.6-6.9-12c-2.3-1.2-5-1.5-7.2-1.7
				c-1.8-0.1-3-0.7-3.9-1.8c0.1-0.3,0.1-0.7,0.2-1c0.8,0.4,1.7,0.7,2.8,0.9c1.3,0.2,2.6,0.3,3.7,0.3c0.4,0,0.8,0,1.2,0l0.2,0l0.3,0
				c1.9,0,3.5,0.2,5,0.7c3.2,1,6.7,6,7.3,9.5c0.1,0.7,0.1,1.4,0.2,2c0,1.1,0.8,1.6,1.4,1.6c0.1,0,0.1,0,0.2,0c0.5,0,1.2-0.3,1.4-1.5
				c0.1-0.6,0.1-1,0.2-1.4c0.2-3.6-1.6-10-4.9-12.4c-2.1-2-4.9-3.2-8.5-3.8c-1-0.2-1.9-0.3-2.9-0.4c-0.7-0.1-1.3-0.2-1.9-0.2
				C29,4,28,3.5,27.2,2.5c-0.5-0.6-1-1.1-1.8-1.6C24.9,0.5,24.4,0.3,23.8,0.3L23.8,0.3z"/>
		</g>
	</g>
</g>
</svg>
