<?xml version="1.0" encoding="utf-8"?>
<!-- Generator: Adobe Illustrator 27.3.0, SVG Export Plug-In . SVG Version: 6.00 Build 0)  -->
<svg version="1.1" id="Layer_1" xmlns="http://www.w3.org/2000/svg" xmlns:xlink="http://www.w3.org/1999/xlink" x="0px" y="0px"
	 viewBox="0 0 25 25" style="enable-background:new 0 0 25 25;" xml:space="preserve">
<style type="text/css">
	.st0{fill:#1C75BC;}
</style>
<g>
	<g>
		<path class="st0" d="M13.7,18.6l0.5,0c2,0,3.1,1.3,3.1,3.9c0,1-0.2,1.7-0.5,2c-0.3,0.3-0.9,0.5-1.9,0.5h-0.6
			c0.3-0.9,0.5-1.7,0.5-2.4C14.8,21.2,14.4,19.9,13.7,18.6z M14.3,0L15,0c0.8,0,1.4,0.2,1.7,0.5c0.3,0.4,0.5,1,0.5,1.9
			c0,2.6-1,3.9-2.9,3.9h-0.6c0.7-1.3,1-2.6,1-4.1C14.6,1.5,14.5,0.7,14.3,0z M9.6,1.5C10.7,0,12.2,0.3,13.7,0
			C13.9,0.8,14,1.6,14,2.3c0,1.3-0.3,2.6-1,4.1h-0.3c-1.3,0-2,2-2,6c0,4.1,0.7,6.2,2,6.2H13c0.8,1.4,1.2,2.7,1.2,4
			c0,0.8-0.2,1.6-0.5,2.4c-1.4-0.2-2.9-0.3-4.1-1.5s-1.1-3.4-1.4-5.3c-0.3-1.8-0.5-3.7-0.5-5.7c0-2,0.2-4,0.5-5.8
			C8.5,4.9,8.5,3,9.6,1.5z"/>
	</g>
	<g>
		<path class="st0" d="M13.7,18.6l0.5,0c2,0,3.1,1.3,3.1,3.9c0,1-0.2,1.7-0.5,2c-0.3,0.3-0.9,0.5-1.9,0.5h-0.6
			c0.3-0.9,0.5-1.7,0.5-2.4C14.8,21.2,14.4,19.9,13.7,18.6z M14.3,0L15,0c0.8,0,1.4,0.2,1.7,0.5c0.3,0.4,0.5,1,0.5,1.9
			c0,2.6-1,3.9-2.9,3.9h-0.6c0.7-1.3,1-2.6,1-4.1C14.6,1.5,14.5,0.7,14.3,0z M9.6,1.5C10.7,0,12.2,0.3,13.7,0
			C13.9,0.8,14,1.6,14,2.3c0,1.3-0.3,2.6-1,4.1h-0.3c-1.3,0-2,2-2,6c0,4.1,0.7,6.2,2,6.2H13c0.8,1.4,1.2,2.7,1.2,4
			c0,0.8-0.2,1.6-0.5,2.4c-1.4-0.2-2.9-0.3-4.1-1.5s-1.1-3.4-1.4-5.3c-0.3-1.8-0.5-3.7-0.5-5.7c0-2,0.2-4,0.5-5.8
			C8.5,4.9,8.5,3,9.6,1.5z"/>
	</g>
</g>
</svg>
