<?xml version="1.0" encoding="utf-8"?>
<!-- Generator: Adobe Illustrator 27.3.0, SVG Export Plug-In . SVG Version: 6.00 Build 0)  -->
<svg version="1.1" id="Layer_1" xmlns="http://www.w3.org/2000/svg" xmlns:xlink="http://www.w3.org/1999/xlink" x="0px" y="0px"
	 viewBox="0 0 50 50" style="enable-background:new 0 0 50 50;" xml:space="preserve">
<style type="text/css">
	.st0{fill:#808285;}
	.st1{fill:#FFC20E;}
	.st2{fill:#2B3990;}
	.st3{fill:none;stroke:#FFFFFF;stroke-width:0.25;stroke-miterlimit:10;}
	.st4{fill:url(#SVGID_1_);}
	.st5{fill:#FFFFFF;stroke:#000000;stroke-width:0.105;stroke-miterlimit:10;}
	.st6{fill:none;}
</style>
<g>
	<ellipse class="st0" cx="24.9" cy="25" rx="24.4" ry="24.7"/>
	<g>
		<path d="M49.3,25C49,38.4,38.5,49.5,24.9,49.5C11.6,49.5,0.7,38.4,0.6,25S11.8,0.4,24.9,0.4C38.5,0.4,49,11.6,49.3,25
			c0,0.1,0.2,0.1,0.2,0C48.9,2.5,20.5-8.7,6,9.4c-14.1,17.3,1.2,43.5,23,39.9c11.9-2,20.2-12.4,20.5-24.4
			C49.5,24.9,49.3,24.9,49.3,25z"/>
	</g>
</g>
<g>
	<g>
		<path d="M49.2,25.1C49.1,35.3,42.7,44.8,33,48.3c-9.7,3.5-20.7,0.1-27.1-8c-6.2-7.8-6.9-18.9-2-27.6C9.3,3.3,20.4-1.5,30.7,1.1
			C41.5,3.9,49.1,13.8,49.2,25.1c0,0.1,0.4,0,0.4-0.1C49.5,14.3,42.7,4.7,32.7,1.4C23.2-1.7,12.3,1.5,6,9.2
			c-6.7,8.2-7.5,20.3-1.8,29.3C9.7,47,20.1,51.3,29.9,49.2C41.3,46.9,49.5,36.6,49.6,25C49.6,24.9,49.2,24.9,49.2,25.1z"/>
	</g>
</g>
<g>
	<g>
		<path d="M45.8,25.1c-0.1,8.8-5.5,17-13.7,20c-8.3,3.1-17.9,0.2-23.3-6.7C3.3,31.5,2.5,21.6,7,14c4.4-7.8,13.5-11.9,22.3-10
			C38.9,6.2,45.7,15.1,45.8,25.1c0,0.7,1.4,0.4,1.4-0.1c-0.1-9.4-6-17.9-14.6-20.9c-8.7-3.2-18.8-0.3-24.7,6.8
			c-6,7.2-6.8,17.8-2,25.8c4.9,8,14.4,11.9,23.3,10.2c10.3-2.2,18-11.3,18-22C47.2,24.3,45.8,24.5,45.8,25.1z"/>
	</g>
</g>
<g>
	<g>
		<path d="M47.1,25.1C47,34.3,41.4,43,32.8,46.3c-8.9,3.4-19,0.3-24.9-7C2,32,1.2,21.4,5.9,13.3C10.6,5.2,20.3,0.7,29.5,2.8
			C39.7,5.2,47,14.5,47.1,25.1c0,0.7,1.5,0.4,1.5-0.2c0-10-6.3-18.9-15.7-22.2C23.7-0.6,13,2.4,6.8,10c-6.3,7.6-7.2,18.7-2.1,27.2
			S19.8,50,29.3,48.2C40.3,46,48.5,36.2,48.6,24.9C48.6,24.2,47.1,24.5,47.1,25.1z"/>
	</g>
</g>
<g>
	<g>
		<path d="M48.2,25.1c-0.1,9.8-6,18.8-15.1,22.3C23.8,50.8,13.1,47.7,7,40S0,21.2,5,12.7c5-8.6,15-13.1,24.6-10.9
			C40.4,4.2,48.1,14,48.2,25.1c0,0.7,1.6,0.4,1.6-0.2C49.7,14.4,43.1,5.1,33.2,1.6C23.6-1.8,12.3,1.4,5.9,9.3
			c-6.6,8-7.5,19.6-2.1,28.6c5.4,8.9,15.9,13.3,26,11.3c11.4-2.3,19.9-12.5,20-24.4C49.8,24.2,48.2,24.5,48.2,25.1z"/>
	</g>
</g>
<g>
	<g>
		<path d="M44.6,25.2c-0.1,8.3-5.2,16.2-13.1,18.9c-7.9,2.9-17-0.2-22.1-6.8c-5-6.5-5.6-15.7-1.5-22.8C12.3,7,21,3.2,29.3,5.3
			C38.3,7.6,44.6,15.9,44.6,25.2c0,0.3,1.5,0.1,1.4-0.4c-0.1-8.9-5.9-17-14.3-19.7c-8.2-2.7-17.6,0.1-23,6.7
			c-5.8,6.9-6.4,17.1-1.6,24.6c4.8,7.4,13.8,10.9,22.3,9c9.6-2.2,16.6-10.7,16.7-20.6C46,24.5,44.6,24.7,44.6,25.2z"/>
	</g>
</g>
<g>
	<g>
		<path d="M43.5,25.1c-0.1,7.8-4.8,15-12,17.8c-7.4,2.8-15.9,0.3-20.8-5.9c-4.9-6.1-5.6-14.8-1.6-21.6C13,8.5,21,4.9,28.8,6.5
			C37.2,8.3,43.4,16.2,43.5,25.1c0,0.7,1.5,0.5,1.5-0.1c-0.1-8.4-5.3-16-13.2-18.7C24,3.5,15,6,9.6,12.5s-6.1,15.9-1.8,23
			c4.3,7.2,12.8,10.8,20.9,9.2c9.2-1.8,16.1-10.2,16.1-19.6C44.9,24.2,43.5,24.4,43.5,25.1z"/>
	</g>
</g>
<g>
	<g>
		<path d="M42.3,25.2c-0.1,7.4-4.6,14.3-11.5,16.9c-7,2.6-15-0.2-19.5-6c-4.4-5.8-5-14-1.4-20.3c3.8-6.7,11.6-10.2,19-8.2
			C36.9,9.6,42.3,17,42.3,25.2c0,0.3,1.5,0.1,1.4-0.4c0-8-5.2-15.2-12.8-17.6c-7.2-2.3-15.6,0.2-20.5,6C5.3,19.4,4.6,28.4,9,35.1
			c4.3,6.6,12.3,9.7,19.8,8c8.6-2,14.8-9.5,14.8-18.3C43.8,24.5,42.3,24.7,42.3,25.2z"/>
	</g>
</g>
<g>
	<g>
		<path d="M40.8,25.1c-0.1,6.7-4,12.9-10.3,15.3c-6.3,2.5-13.7,0.1-17.9-5.2C8.5,29.9,8,22.3,11.4,16.5c3.5-5.9,10.4-9,17-7.4
			C35.7,10.9,40.8,17.7,40.8,25.1c0.1,0.6,1.6,0.3,1.5-0.3C42.1,17.5,37.4,11,30.6,8.7c-6.7-2.2-14.4,0-18.9,5.3
			C7,19.6,6.3,27.8,10.2,34c3.8,6.1,11.1,9.1,18.1,7.7c7.9-1.7,13.9-8.7,14-16.9C42.2,24.3,40.9,24.6,40.8,25.1z"/>
	</g>
</g>
<g>
	<g>
		<path d="M39.4,25.1c-0.1,6-3.7,11.7-9.5,13.8c-5.8,2.2-12.3,0.2-16.1-4.6c-3.8-4.7-4.4-11.5-1.4-16.9s9.3-8.2,15.2-6.9
			C34.5,11.9,39.3,18.2,39.4,25.1c0,0.8,1.5,0.6,1.5-0.1c-0.1-6.7-4.3-12.8-10.6-15c-6.2-2.2-13.3-0.2-17.5,4.8
			c-4.3,5.1-4.9,12.6-1.5,18.3s10.2,8.6,16.6,7.3c7.3-1.4,12.8-8.1,12.9-15.6C40.9,24.2,39.4,24.4,39.4,25.1z"/>
	</g>
</g>
<g>
	<g>
		<path d="M38.1,25.1c-0.1,5.5-3.3,10.8-8.6,12.7c-5.3,2-11.2,0.1-14.7-4.2s-4-10.7-1.3-15.5c2.8-4.9,8.4-7.6,14-6.3
			C33.6,13,38,18.8,38.1,25.1c0,0.6,1.5,0.3,1.5-0.2c-0.1-6.1-3.8-11.5-9.6-13.5c-5.7-2-12.2-0.2-16.1,4.4c-4,4.6-4.6,11.5-1.4,16.8
			c3.1,5.2,9.4,7.8,15.3,6.6c6.7-1.4,11.7-7.3,11.8-14.2C39.5,24.3,38.1,24.6,38.1,25.1z"/>
	</g>
</g>
<g>
	<g>
		<path d="M37,25.1c-0.1,5-2.9,9.8-7.7,11.5c-4.9,1.9-10.4,0.1-13.6-3.9c-3.1-3.9-3.6-9.7-1.1-14.1c2.6-4.5,7.8-7,12.9-5.7
			C33,14.2,36.9,19.4,37,25.1c-0.1,0.5,1.4,0.2,1.3-0.4c-0.1-5.6-3.7-10.7-9-12.4c-5.2-1.7-11,0-14.6,4c-3.7,4.2-4.2,10.6-1.4,15.4
			c2.8,4.7,8.6,7.1,14,6c6.2-1.2,10.8-6.6,10.9-13C38.3,24.3,37,24.6,37,25.1z"/>
	</g>
</g>
<g>
	<g>
		<path d="M35.5,25.2c-0.1,4.5-2.8,8.9-7.1,10.4c-4.3,1.5-9.2-0.4-11.8-3.9s-2.9-8.5-0.8-12.2c2.3-4.1,7-6.3,11.6-5
			C32.3,15.7,35.5,20.1,35.5,25.2c0,0.4,1.5,0.1,1.4-0.4c-0.1-5-3.4-9.7-8.2-11c-4.6-1.4-9.9,0.2-13,3.8c-3.2,3.8-3.7,9.5-1,13.8
			c2.7,4.2,7.8,6.2,12.7,5.1c5.5-1.2,9.5-5.9,9.6-11.6C37,24.5,35.6,24.7,35.5,25.2z"/>
	</g>
</g>
<g>
	<g>
		<path d="M34.6,25.2c-0.1,4.1-2.5,8.1-6.4,9.5c-4,1.4-8.6-0.5-10.9-3.8c-2.2-3.3-2.5-7.6-0.6-11C18.8,16,23,14,27.2,15.2
			C31.6,16.4,34.5,20.6,34.6,25.2c0,0.2,1.5,0,1.4-0.4c-0.1-4.6-3.1-8.8-7.5-10.2c-4.2-1.3-9.2,0.2-12,3.6c-3,3.6-3.4,8.9-0.8,12.7
			c2.5,3.8,7.1,5.4,11.5,4.4c5-1.1,8.8-5.4,8.8-10.7C36,24.6,34.6,24.8,34.6,25.2z"/>
	</g>
</g>
<g>
	<g>
		<path d="M33.7,25.2c-0.1,3.7-2.2,7.4-5.9,8.7s-7.7-0.4-10-3.5c-2.1-3-2.3-7-0.6-10.2c2-3.5,5.8-5.2,9.6-4.1
			C31,17.2,33.6,21,33.7,25.2c0,0.3,1.5,0.1,1.4-0.4c-0.1-4.2-2.8-8.1-6.9-9.3c-3.9-1.2-8.5,0.2-11.1,3.3c-2.7,3.3-3.1,8.1-0.8,11.6
			c2.3,3.6,6.5,5,10.6,4c4.6-1,8.1-4.9,8.1-9.8C35.1,24.5,33.7,24.7,33.7,25.2z"/>
	</g>
</g>
<g>
	<g>
		<path d="M33.7,25c-0.1,3.6-2.2,7-5.8,8.3c-3.5,1.3-7.5,0.1-9.9-2.9c-2.1-2.8-2.5-6.8-0.8-9.9c1.9-3.3,5.7-5,9.3-4.3
			C30.7,17.1,33.6,20.8,33.7,25c0,0.2,0.3,0.1,0.3,0c-0.1-3.8-2.4-7.3-6-8.6s-7.5-0.2-10,2.7c-2.4,3-2.8,7.3-0.9,10.6
			s5.8,4.9,9.4,4.2c4.3-0.8,7.4-4.6,7.4-9C34,24.8,33.7,24.9,33.7,25z"/>
	</g>
</g>
<g>
	<path class="st1" d="M24.9,33.9c-4.8,0-8.8-3.9-8.8-8.9c0-4.8,3.9-8.9,8.8-8.9c4.8,0,8.8,3.9,8.8,8.9
		C33.7,29.8,29.7,33.9,24.9,33.9z"/>
	<path class="st2" d="M24.9,16.3c4.7,0,8.6,3.8,8.6,8.7s-3.8,8.7-8.6,8.7s-8.6-3.8-8.6-8.7S20.3,16.3,24.9,16.3 M24.9,16
		c-4.9,0-8.9,4-8.9,9s4,9,8.9,9s8.9-4,8.9-9S29.8,16,24.9,16L24.9,16z"/>
</g>
<g>
	<g>
		<path class="st3" d="M24.9,31c-0.4,0-0.8,0.1-1.2,0c-0.4-0.1-0.7-0.3-1.1-0.4c-0.4-0.2-0.6-0.6-0.9-0.8c-0.3-0.2-0.6-0.5-0.9-0.7
			c-0.3-0.3-0.5-0.5-0.7-0.9c-0.2-0.3-0.7-0.5-0.8-0.9c-0.1-0.4-0.4-0.7-0.5-1.1c-0.1-0.4,0-0.8,0-1.2c0-0.4,0.4-0.7,0.4-1.1
			c0.1-0.4-0.1-0.9,0-1.2c0.1-0.4,0.5-0.7,0.7-1c0.2-0.3,0.6-0.5,0.9-0.8c0.3-0.3,0.4-0.7,0.7-0.9c0.3-0.2,0.6-0.5,1-0.7
			c0.4-0.2,0.8,0,1.2-0.1c0.4-0.1,0.7-0.4,1.1-0.4c0.4,0,0.8,0.3,1.1,0.4c0.4,0.1,0.8,0.1,1.1,0.2c0.4,0.2,0.9,0.1,1.2,0.3
			c0.3,0.2,0.2,1,0.5,1.2c0.3,0.3,0.8,0.3,1,0.7c0.2,0.3,0.3,0.7,0.5,1.1c0.1,0.4,0.1,0.8,0.2,1.1c0.1,0.4,0.1,0.7,0.1,1.1
			c0,0.4,0.1,0.8,0,1.1c-0.1,0.4-0.3,0.7-0.5,1c-0.2,0.4,0.1,1-0.1,1.3c-0.2,0.3-0.6,0.6-0.9,0.8c-0.3,0.3-0.6,0.6-0.9,0.8
			c-0.3,0.2-0.8,0.2-1.2,0.3c-0.4,0.2-0.7,0.4-1.1,0.5C25.7,31,25.3,31,24.9,31z"/>
	</g>
</g>
<g>
	
		<linearGradient id="SVGID_1_" gradientUnits="userSpaceOnUse" x1="23.6754" y1="27.5018" x2="26.2126" y2="22.5463" gradientTransform="matrix(1 0 0 -1 0 50)">
		<stop  offset="0" style="stop-color:#BCBEC0"/>
		<stop  offset="1" style="stop-color:#6D6E71"/>
	</linearGradient>
	<path class="st4" d="M24.9,22.2L24.9,22.2c1.1,0,2,0.6,2.4,1.6c0.3,0.7,0.4,1.4,0.2,2.1c-0.2,0.7-0.7,1.3-1.4,1.6
		c-0.4,0.2-0.8,0.3-1.3,0.3c-1.1,0-2-0.6-2.4-1.5c-0.3-0.7-0.4-1.4-0.2-2.1c0.2-0.7,0.7-1.3,1.4-1.6C24.1,22.3,24.6,22.2,24.9,22.2
		L24.9,22.2 M24.9,22.2c-0.4,0-0.9,0.1-1.3,0.3c-1.4,0.7-1.9,2.4-1.2,3.7c0.5,1,1.5,1.5,2.4,1.5c0.4,0,0.9-0.1,1.3-0.3
		c1.4-0.7,1.9-2.4,1.2-3.7C26.9,22.7,25.9,22.2,24.9,22.2L24.9,22.2z"/>
</g>
<ellipse class="st5" cx="24.9" cy="25" rx="0.7" ry="0.7"/>
<path id="SVGID_x5F_00000057859769791831021560000000318165876796969107_x5F_" class="st6" d="M27.2,20.8c2.2,1.3,3.1,4.1,1.9,6.4
	s-4.1,3.2-6.3,1.9s-3.1-4.1-1.9-6.4C22.1,20.4,24.9,19.6,27.2,20.8z"/>
</svg>
